<?xml version="1.0" encoding="UTF-8"?>
<!DOCTYPE svg PUBLIC "-//W3C//DTD SVG 1.1//EN" "http://www.w3.org/Graphics/SVG/1.1/DTD/svg11.dtd"[]>
<svg xmlns="http://www.w3.org/2000/svg" version="1.1" width="1024px" height="1024px" style="shape-rendering:geometricPrecision; text-rendering:geometricPrecision; image-rendering:optimizeQuality; fill-rule:evenodd; clip-rule:evenodd" xmlns:xlink="http://www.w3.org/1999/xlink" viewBox="133 307 768 389">
  <g>
    <path style="opacity:0.004" fill="#e6b34d" d="M 259.5,325.5 C 260.833,326.167 260.833,326.167 259.5,325.5 Z" />
  </g>
  <g>
    <path style="opacity:0.004" fill="#dfb04e" d="M 302.5,329.5 C 303.833,330.167 303.833,330.167 302.5,329.5 Z" />
  </g>
  <g>
    <path style="opacity:0.99" fill="#f6af35" d="M 301.5,331.5 C 308.265,332.102 310.098,335.435 307,341.5C 303.532,346.934 299.699,352.101 295.5,357C 289.498,357.993 287.332,355.493 289,349.5C 292.93,343.297 297.097,337.297 301.5,331.5 Z" />
  </g>
  <g>
    <path style="opacity:0.993" fill="#f6ac33" d="M 251.5,319.5 C 253.582,319.472 255.416,320.139 257,321.5C 258.766,328.921 259.432,336.255 259,343.5C 256.644,349.176 253.311,349.842 249,345.5C 247.494,338.567 247.161,331.567 248,324.5C 248.997,322.677 250.164,321.01 251.5,319.5 Z" />
  </g>
  <g>
    <path style="opacity:0.996" fill="#f7ae34" d="M 205.5,349.5 C 202.978,345.468 200.645,341.302 198.5,337C 200.234,331.71 203.401,330.544 208,333.5C 212.351,339.539 216.185,345.872 219.5,352.5C 217.997,357.461 214.997,358.627 210.5,356C 208.934,353.674 207.268,351.508 205.5,349.5 Z" />
  </g>
  <g>
    <path style="opacity:0.004" fill="#f1b944" d="M 248.5,347.5 C 249.833,348.167 249.833,348.167 248.5,347.5 Z" />
  </g>
  <g>
    <path style="opacity:0.008" fill="#e6b449" d="M 205.5,349.5 C 204.833,350.167 204.833,350.167 205.5,349.5 Z" />
  </g>
  <g>
    <path style="opacity:0.004" fill="#eeb744" d="M 212.5,358.5 C 213.833,359.167 213.833,359.167 212.5,358.5 Z" />
  </g>
  <g>
    <path style="opacity:0.004" fill="#f2b543" d="M 292.5,359.5 C 292.897,358.475 293.563,358.308 294.5,359C 293.906,359.464 293.239,359.631 292.5,359.5 Z" />
  </g>
  <g>
    <path style="opacity:0.996" fill="#f7b030" d="M 306.5,400.5 C 291.328,394.124 275.661,390.124 259.5,388.5C 260.323,387.318 257.657,386.985 251.5,387.5C 244.363,387.252 238.696,387.918 234.5,389.5C 233.432,390.434 232.099,390.768 230.5,390.5C 230.083,389.876 229.416,389.543 228.5,389.5C 226.181,390.064 223.847,390.564 221.5,391C 216.241,392.307 211.908,394.141 208.5,396.5C 205.46,398.346 202.127,399.679 198.5,400.5C 206.455,373.545 224.455,359.211 252.5,357.5C 272.959,357.807 288.792,366.474 300,383.5C 302.864,388.929 305.031,394.595 306.5,400.5 Z" />
  </g>
  <g>
    <path style="opacity:0.004" fill="#d8ab52" d="M 171.5,364.5 C 170.833,363.167 170.833,363.167 171.5,364.5 Z" />
  </g>
  <g>
    <path style="opacity:0.993" fill="#f5ad34" d="M 330.5,379.5 C 326.827,382.003 322.827,384.003 318.5,385.5C 315.632,384.797 313.965,382.964 313.5,380C 318.774,373.403 325.274,368.237 333,364.5C 337.772,366.204 339.106,369.204 337,373.5C 334.665,375.4 332.498,377.4 330.5,379.5 Z" />
  </g>
  <g>
    <path style="opacity:0.993" fill="#f4ac34" d="M 171.5,364.5 C 179.083,368.461 185.749,373.628 191.5,380C 189.401,386.111 185.734,387.111 180.5,383C 176.4,380.533 172.566,377.699 169,374.5C 166.712,370.318 167.545,366.984 171.5,364.5 Z" />
  </g>
  <g>
    <path style="opacity:0.004" fill="#e7b045" d="M 311.5,378.5 C 312.833,379.167 312.833,379.167 311.5,378.5 Z" />
  </g>
  <g>
    <path style="opacity:0.004" fill="#daab49" d="M 330.5,379.5 C 331.833,380.167 331.833,380.167 330.5,379.5 Z" />
  </g>
  <g>
    <path style="opacity:0.998" fill="#fdef3d" d="M 259.5,388.5 C 251.146,388.427 242.812,388.76 234.5,389.5C 238.696,387.918 244.363,387.252 251.5,387.5C 257.657,386.985 260.323,387.318 259.5,388.5 Z" />
  </g>
  <g>
    <path style="opacity:0.996" fill="#f7df3b" d="M 230.5,390.5 C 223,391.889 215.666,393.889 208.5,396.5C 211.908,394.141 216.241,392.307 221.5,391C 223.847,390.564 226.181,390.064 228.5,389.5C 229.416,389.543 230.083,389.876 230.5,390.5 Z" />
  </g>
  <g>
    <path style="opacity:0.004" fill="#b38541" d="M 310.5,400.5 C 311.833,401.167 311.833,401.167 310.5,400.5 Z" />
  </g>
  <g>
    <path style="opacity:0.996" fill="#769a4f" d="M 315.5,416.5 C 350.214,441.593 365.214,475.593 360.5,518.5C 360.348,511.019 360.181,503.352 360,495.5C 359.787,489.361 358.787,483.361 357,477.5C 355.942,481.12 355.442,484.787 355.5,488.5C 354.158,490.005 352.492,490.672 350.5,490.5C 350.657,489.127 350.49,487.793 350,486.5C 348.556,488.155 346.722,488.822 344.5,488.5C 344.649,489.552 344.483,490.552 344,491.5C 343.691,490.234 343.191,489.067 342.5,488C 343.938,487.781 345.271,487.281 346.5,486.5C 345.047,486.94 343.881,486.274 343,484.5C 342,486.167 341,487.833 340,489.5C 339.536,483.825 338.869,483.492 338,488.5C 337.586,488.043 337.086,487.709 336.5,487.5C 335.679,490.447 335.179,493.447 335,496.5C 334.819,493.305 334.319,490.305 333.5,487.5C 332.297,483.89 331.297,480.223 330.5,476.5C 327.091,464.109 322.591,452.109 317,440.5C 313.949,437.891 310.449,436.225 306.5,435.5C 270.165,435.333 233.832,435.5 197.5,436C 196.167,436.667 194.833,437.333 193.5,438C 193.728,438.399 194.062,438.565 194.5,438.5C 189.745,442.326 186.745,447.326 185.5,453.5C 180.792,464.614 176.459,475.947 172.5,487.5C 171.681,490.305 171.181,493.305 171,496.5C 170.502,493.183 170.335,489.85 170.5,486.5C 167.261,486.587 164.261,485.92 161.5,484.5C 161.579,483.07 161.246,481.736 160.5,480.5C 157.367,479.067 154.2,477.734 151,476.5C 151.305,474.557 151.305,472.557 151,470.5C 150.211,474.351 149.044,477.351 147.5,479.5C 159.481,435.691 187.814,409.191 232.5,400C 262.192,395.572 289.859,401.072 315.5,416.5 Z" />
  </g>
  <g>
    <path style="opacity:0.008" fill="#a97d3d" d="M 312.5,401.5 C 313.833,402.167 313.833,402.167 312.5,401.5 Z" />
  </g>
  <g>
    <path style="opacity:0.004" fill="#b0823c" d="M 192.5,403.5 C 191.833,402.167 191.833,402.167 192.5,403.5 Z" />
  </g>
  <g>
    <path style="opacity:0.008" fill="#a77d3f" d="M 315.5,403.5 C 316.833,404.167 316.833,404.167 315.5,403.5 Z" />
  </g>
  <g>
    <path style="opacity:0.004" fill="#a47e40" d="M 317.5,404.5 C 318.833,405.167 318.833,405.167 317.5,404.5 Z" />
  </g>
  <g>
    <path style="opacity:0.008" fill="#9f7342" d="M 184.5,408.5 C 183.833,407.167 183.833,407.167 184.5,408.5 Z" />
  </g>
  <g>
    <path style="opacity:0.004" fill="#a1773f" d="M 180.5,411.5 C 179.833,410.167 179.833,410.167 180.5,411.5 Z" />
  </g>
  <g>
    <path style="opacity:0.004" fill="#916c42" d="M 159.5,426.5 C 160.833,427.167 160.833,427.167 159.5,426.5 Z" />
  </g>
  <g>
    <path style="opacity:0.004" fill="#936c42" d="M 158.5,432.5 C 157.833,431.167 157.833,431.167 158.5,432.5 Z" />
  </g>
  <g>
    <path style="opacity:0.008" fill="#8d6842" d="M 348.5,431.5 C 349.833,432.167 349.833,432.167 348.5,431.5 Z" />
  </g>
  <g>
    <path style="opacity:0.004" fill="#8c6844" d="M 151.5,432.5 C 152.833,433.167 152.833,433.167 151.5,432.5 Z" />
  </g>
  <g>
    <path style="opacity:0.994" fill="#88db6c" d="M 306.5,435.5 C 306.5,435.833 306.5,436.167 306.5,436.5C 270.498,436.333 234.498,436.5 198.5,437C 197.255,437.791 195.922,438.291 194.5,438.5C 194.062,438.565 193.728,438.399 193.5,438C 194.833,437.333 196.167,436.667 197.5,436C 233.832,435.5 270.165,435.333 306.5,435.5 Z" />
  </g>
  <g>
    <path style="opacity:0.999" fill="#571f12" d="M 306.5,436.5 C 313.829,437.829 318.163,442.163 319.5,449.5C 317.706,448.07 316.206,445.737 315,442.5C 313.421,440.959 311.587,439.792 309.5,439C 272.167,438.333 234.833,438.333 197.5,439C 194.898,439.883 192.731,441.383 191,443.5C 189.54,447.739 187.706,451.072 185.5,453.5C 186.745,447.326 189.745,442.326 194.5,438.5C 195.922,438.291 197.255,437.791 198.5,437C 234.498,436.5 270.498,436.333 306.5,436.5 Z" />
  </g>
  <g>
    <path style="opacity:0.996" fill="#82bb5e" d="M 306.5,436.5 C 306.5,436.167 306.5,435.833 306.5,435.5C 310.449,436.225 313.949,437.891 317,440.5C 322.591,452.109 327.091,464.109 330.5,476.5C 326.638,467.58 322.971,458.58 319.5,449.5C 318.163,442.163 313.829,437.829 306.5,436.5 Z" />
  </g>
  <g>
    <path style="opacity:0.008" fill="#8a6544" d="M 149.5,439.5 C 150.833,440.167 150.833,440.167 149.5,439.5 Z" />
  </g>
  <g>
    <path style="opacity:0.996" fill="#592e1b" d="M 319.5,449.5 C 322.971,458.58 326.638,467.58 330.5,476.5C 331.297,480.223 332.297,483.89 333.5,487.5C 334.667,498.012 331.334,506.679 323.5,513.5C 322.661,530.759 322.161,548.759 322,567.5C 321.443,569.615 320.609,571.615 319.5,573.5C 319.624,574.107 319.957,574.44 320.5,574.5C 319.5,576.167 318.167,577.5 316.5,578.5C 315.503,577.287 314.503,577.454 313.5,579C 273.5,579.667 233.5,579.667 193.5,579C 188.572,577.073 185.406,573.573 184,568.5C 183.667,549.833 183.333,531.167 183,512.5C 179.902,510.072 177.569,507.072 176,503.5C 175.31,502.262 174.81,502.262 174.5,503.5C 174.167,503.5 173.833,503.5 173.5,503.5C 172.725,498.203 172.392,492.87 172.5,487.5C 176.459,475.947 180.792,464.614 185.5,453.5C 187.706,451.072 189.54,447.739 191,443.5C 192.731,441.383 194.898,439.883 197.5,439C 234.833,438.333 272.167,438.333 309.5,439C 311.587,439.792 313.421,440.959 315,442.5C 316.206,445.737 317.706,448.07 319.5,449.5 Z" />
  </g>
  <g>
    <path style="opacity:0.004" fill="#8b6747" d="M 354.5,439.5 C 355.833,440.167 355.833,440.167 354.5,439.5 Z" />
  </g>
  <g>
    <path style="opacity:0.004" fill="#886544" d="M 150.5,443.5 C 149.833,442.167 149.833,442.167 150.5,443.5 Z" />
  </g>
  <g>
    <path style="opacity:0.004" fill="#886646" d="M 147.5,445.5 C 148.833,446.167 148.833,446.167 147.5,445.5 Z" />
  </g>
  <g>
    <path style="opacity:0.997" fill="#14010e" d="M 238.5,446.5 C 248.653,445.506 258.986,445.172 269.5,445.5C 270.498,449.328 270.498,452.994 269.5,456.5C 269.384,453.14 269.051,449.807 268.5,446.5C 258.5,446.5 248.5,446.5 238.5,446.5 Z" />
  </g>
  <g>
    <path style="opacity:0.997" fill="#fade38" d="M 238.5,446.5 C 248.5,446.5 258.5,446.5 268.5,446.5C 269.051,449.807 269.384,453.14 269.5,456.5C 269.5,457.5 269.5,458.5 269.5,459.5C 268.077,456.332 267.41,452.332 267.5,447.5C 258.5,447.5 249.5,447.5 240.5,447.5C 239.669,452.487 238.836,457.487 238,462.5C 237.517,461.552 237.351,460.552 237.5,459.5C 238.08,455.19 238.414,450.857 238.5,446.5 Z" />
  </g>
  <g>
    <path style="opacity:0.004" fill="#8a6645" d="M 144.5,447.5 C 145.833,448.167 145.833,448.167 144.5,447.5 Z" />
  </g>
  <g>
    <path style="opacity:0.012" fill="#886642" d="M 146.5,447.5 C 147.833,448.167 147.833,448.167 146.5,447.5 Z" />
  </g>
  <g>
    <path style="opacity:0.996" fill="#f7b32f" d="M 269.5,459.5 C 271.262,467.633 272.595,475.966 273.5,484.5C 260.167,484.5 246.833,484.5 233.5,484.5C 234.347,475.957 235.68,467.624 237.5,459.5C 237.351,460.552 237.517,461.552 238,462.5C 238.836,457.487 239.669,452.487 240.5,447.5C 249.5,447.5 258.5,447.5 267.5,447.5C 267.41,452.332 268.077,456.332 269.5,459.5 Z" />
  </g>
  <g>
    <path style="opacity:0.997" fill="#f6862e" d="M 184.5,482.5 C 197.167,482.5 209.833,482.5 222.5,482.5C 223.112,478.837 223.279,475.17 223,471.5C 221.334,472.34 221.167,471.84 222.5,470C 221.671,468.184 220.837,466.351 220,464.5C 218.913,466.932 218.413,466.598 218.5,463.5C 216.436,463.313 214.436,462.813 212.5,462C 213.535,460.493 213.368,458.993 212,457.5C 211.798,459.256 211.298,460.922 210.5,462.5C 210.167,462.333 209.833,462.167 209.5,462C 209.833,460.333 210.167,458.667 210.5,457C 207.734,456.309 207.067,454.809 208.5,452.5C 206.053,450.777 203.387,450.277 200.5,451C 199.167,452 199.167,453 200.5,454C 199.124,456.543 197.957,456.709 197,454.5C 194.48,460.388 192.147,466.388 190,472.5C 188.688,475.986 187.188,478.653 185.5,480.5C 188.986,470.854 192.486,461.188 196,451.5C 196.785,449.714 197.951,448.214 199.5,447C 209.494,446.5 219.494,446.334 229.5,446.5C 227.608,458.853 225.608,471.186 223.5,483.5C 210.323,483.829 197.323,483.495 184.5,482.5 Z" />
  </g>
  <g>
    <path style="opacity:0.996" fill="#f6872d" d="M 320.5,479.5 C 319.596,480.209 319.263,481.209 319.5,482.5C 307.833,482.5 296.167,482.5 284.5,482.5C 283.955,478.828 283.622,479.162 283.5,483.5C 281.658,471.601 279.658,459.601 277.5,447.5C 287.483,446.334 297.483,446.168 307.5,447C 312.52,457.561 316.854,468.395 320.5,479.5 Z" />
  </g>
  <g>
    <path style="opacity:0.004" fill="#8a6545" d="M 364.5,459.5 C 365.833,460.167 365.833,460.167 364.5,459.5 Z" />
  </g>
  <g>
    <path style="opacity:0.004" fill="#82563f" d="M 478.5,464.5 C 477.833,463.167 477.833,463.167 478.5,464.5 Z" />
  </g>
  <g>
    <path style="opacity:0.024" fill="#754e35" d="M 603.5,464.5 C 602.833,463.167 602.833,463.167 603.5,464.5 Z" />
  </g>
  <g>
    <path style="opacity:0.004" fill="#7d533a" d="M 620.5,464.5 C 621.833,465.167 621.833,465.167 620.5,464.5 Z" />
  </g>
  <g>
    <path style="opacity:0.004" fill="#7f4e3a" d="M 719.5,465.5 C 720.833,466.167 720.833,466.167 719.5,465.5 Z" />
  </g>
  <g>
    <path style="opacity:0.012" fill="#7c5237" d="M 599.5,466.5 C 600.833,467.167 600.833,467.167 599.5,466.5 Z" />
  </g>
  <g>
    <path style="opacity:0.004" fill="#7d543a" d="M 657.5,466.5 C 658.833,467.167 658.833,467.167 657.5,466.5 Z" />
  </g>
  <g>
    <path style="opacity:0.004" fill="#7f533b" d="M 665.5,466.5 C 666.833,467.167 666.833,467.167 665.5,466.5 Z" />
  </g>
  <g>
    <path style="opacity:0.008" fill="#7e543b" d="M 681.5,466.5 C 682.833,467.167 682.833,467.167 681.5,466.5 Z" />
  </g>
  <g>
    <path style="opacity:0.004" fill="#7e533a" d="M 684.5,466.5 C 685.833,467.167 685.833,467.167 684.5,466.5 Z" />
  </g>
  <g>
    <path style="opacity:0.004" fill="#876348" d="M 137.5,468.5 C 138.833,469.167 138.833,469.167 137.5,468.5 Z" />
  </g>
  <g>
    <path style="opacity:0.008" fill="#7e513a" d="M 475.5,469.5 C 476.525,469.897 476.692,470.563 476,471.5C 475.536,470.906 475.369,470.239 475.5,469.5 Z" />
  </g>
  <g>
    <path style="opacity:0.004" fill="#7a5038" d="M 708.5,470.5 C 709.833,471.167 709.833,471.167 708.5,470.5 Z" />
  </g>
  <g>
    <path style="opacity:0.997" fill="#5d311d" d="M 738.5,467.5 C 737.509,474.313 737.175,481.313 737.5,488.5C 742.363,488.819 747.03,488.486 751.5,487.5C 754.187,487.336 756.854,487.503 759.5,488C 758.833,488.333 758.167,488.667 757.5,489C 761.263,495.757 759.763,500.59 753,503.5C 747.837,503.49 743.003,503.157 738.5,502.5C 738.666,510.174 738.5,517.841 738,525.5C 737.5,526 737,526.5 736.5,527C 732.311,527.812 728.311,527.645 724.5,526.5C 728.182,526.665 731.848,526.499 735.5,526C 731.579,525.797 727.745,525.297 724,524.5C 723.832,504.996 723.332,485.662 722.5,466.5C 723.184,464.815 724.517,463.815 726.5,463.5C 728.984,464.773 731.484,464.773 734,463.5C 736.521,463.822 738.021,465.156 738.5,467.5 Z" />
  </g>
  <g>
    <path style="opacity:0.004" fill="#8b6646" d="M 136.5,471.5 C 137.833,472.167 137.833,472.167 136.5,471.5 Z" />
  </g>
  <g>
    <path style="opacity:0.012" fill="#855a3f" d="M 406.5,471.5 C 407.833,472.167 407.833,472.167 406.5,471.5 Z" />
  </g>
  <g>
    <path style="opacity:0.008" fill="#86553a" d="M 412.5,472.5 C 412.897,471.475 413.563,471.308 414.5,472C 413.906,472.464 413.239,472.631 412.5,472.5 Z" />
  </g>
  <g>
    <path style="opacity:0.004" fill="#83553a" d="M 415.5,472.5 C 415.897,471.475 416.563,471.308 417.5,472C 416.906,472.464 416.239,472.631 415.5,472.5 Z" />
  </g>
  <g>
    <path style="opacity:0.012" fill="#815337" d="M 418.5,471.5 C 419.833,472.167 419.833,472.167 418.5,471.5 Z" />
  </g>
  <g>
    <path style="opacity:0.008" fill="#825237" d="M 420.5,472.5 C 420.897,471.475 421.563,471.308 422.5,472C 421.906,472.464 421.239,472.631 420.5,472.5 Z" />
  </g>
  <g>
    <path style="opacity:0.004" fill="#835339" d="M 429.5,471.5 C 430.833,472.167 430.833,472.167 429.5,471.5 Z" />
  </g>
  <g>
    <path style="opacity:0.008" fill="#865438" d="M 431.5,471.5 C 432.833,472.167 432.833,472.167 431.5,471.5 Z" />
  </g>
  <g>
    <path style="opacity:0.012" fill="#865337" d="M 433.5,472.5 C 433.897,471.475 434.563,471.308 435.5,472C 434.906,472.464 434.239,472.631 433.5,472.5 Z" />
  </g>
  <g>
    <path style="opacity:0.008" fill="#815037" d="M 437.5,472.5 C 437.897,471.475 438.563,471.308 439.5,472C 438.906,472.464 438.239,472.631 437.5,472.5 Z" />
  </g>
  <g>
    <path style="opacity:0.012" fill="#835439" d="M 449.5,471.5 C 450.833,472.167 450.833,472.167 449.5,471.5 Z" />
  </g>
  <g>
    <path style="opacity:0.012" fill="#835037" d="M 452.5,472.5 C 452.897,471.475 453.563,471.308 454.5,472C 453.906,472.464 453.239,472.631 452.5,472.5 Z" />
  </g>
  <g>
    <path style="opacity:0.016" fill="#835037" d="M 540.5,472.5 C 540.897,471.475 541.563,471.308 542.5,472C 541.906,472.464 541.239,472.631 540.5,472.5 Z" />
  </g>
  <g>
    <path style="opacity:0.004" fill="#84533b" d="M 544.5,472.5 C 544.897,471.475 545.563,471.308 546.5,472C 545.906,472.464 545.239,472.631 544.5,472.5 Z" />
  </g>
  <g>
    <path style="opacity:0.008" fill="#825037" d="M 547.5,472.5 C 548.251,471.427 549.251,471.26 550.5,472C 549.552,472.483 548.552,472.649 547.5,472.5 Z" />
  </g>
  <g>
    <path style="opacity:0.008" fill="#845438" d="M 551.5,472.5 C 552.251,471.427 553.251,471.26 554.5,472C 553.552,472.483 552.552,472.649 551.5,472.5 Z" />
  </g>
  <g>
    <path style="opacity:0.004" fill="#845138" d="M 556.5,472.5 C 556.897,471.475 557.563,471.308 558.5,472C 557.906,472.464 557.239,472.631 556.5,472.5 Z" />
  </g>
  <g>
    <path style="opacity:0.004" fill="#815138" d="M 559.5,472.5 C 560.251,471.427 561.251,471.26 562.5,472C 561.552,472.483 560.552,472.649 559.5,472.5 Z" />
  </g>
  <g>
    <path style="opacity:0.014" fill="#804d35" d="M 564.5,472.5 C 564.897,471.475 565.563,471.308 566.5,472C 565.906,472.464 565.239,472.631 564.5,472.5 Z" />
  </g>
  <g>
    <path style="opacity:0.007" fill="#7f5037" d="M 567.5,472.5 C 568.251,471.427 569.251,471.26 570.5,472C 569.552,472.483 568.552,472.649 567.5,472.5 Z" />
  </g>
  <g>
    <path style="opacity:0.004" fill="#825035" d="M 572.5,472.5 C 572.897,471.475 573.563,471.308 574.5,472C 573.906,472.464 573.239,472.631 572.5,472.5 Z" />
  </g>
  <g>
    <path style="opacity:0.016" fill="#815238" d="M 577.5,471.5 C 578.833,472.167 578.833,472.167 577.5,471.5 Z" />
  </g>
  <g>
    <path style="opacity:0.996" fill="#61341f" d="M 648.5,470.5 C 666.923,470.369 685.589,470.536 704.5,471C 705.72,472.525 706.387,474.359 706.5,476.5C 706.46,478.429 706.127,480.262 705.5,482C 698.842,482.5 692.175,482.666 685.5,482.5C 685.421,489.096 687.255,495.096 691,500.5C 696.348,507.189 702.848,512.355 710.5,516C 708.18,519.485 705.513,522.651 702.5,525.5C 692.628,520.796 684.795,513.796 679,504.5C 674.866,508.699 671.699,513.033 669.5,517.5C 669.5,517.833 669.5,518.167 669.5,518.5C 666.19,520.482 663.19,522.815 660.5,525.5C 658.072,526.212 655.739,527.212 653.5,528.5C 652.14,527.82 650.807,527.153 649.5,526.5C 647.647,523.305 645.647,520.139 643.5,517C 644.789,515.198 646.456,514.031 648.5,513.5C 648.56,514.043 648.893,514.376 649.5,514.5C 660.755,509.681 668.088,501.347 671.5,489.5C 671.457,488.584 671.124,487.917 670.5,487.5C 670.5,486.5 670.5,485.5 670.5,484.5C 668.179,484.229 666.179,484.896 664.5,486.5C 662.464,484.655 660.13,484.155 657.5,485C 662.281,485.699 662.447,486.199 658,486.5C 656.981,484.967 654.481,483.967 650.5,483.5C 657.508,483.666 664.508,483.5 671.5,483C 663.921,482.816 656.421,482.316 649,481.5C 648.536,482.094 648.369,482.761 648.5,483.5C 647.766,482.122 647.099,480.622 646.5,479C 646.11,476.051 646.777,473.218 648.5,470.5 Z" />
  </g>
  <g>
    <path style="opacity:0.004" fill="#7d5139" d="M 774.5,471.5 C 775.833,472.167 775.833,472.167 774.5,471.5 Z" />
  </g>
  <g>
    <path style="opacity:0.008" fill="#7b4d32" d="M 777.5,471.5 C 778.833,472.167 778.833,472.167 777.5,471.5 Z" />
  </g>
  <g>
    <path style="opacity:0.01" fill="#7e4e35" d="M 781.5,472.5 C 783.288,471.378 785.288,471.211 787.5,472C 785.527,472.495 783.527,472.662 781.5,472.5 Z" />
  </g>
  <g>
    <path style="opacity:0.017" fill="#7e4d34" d="M 788.5,472.5 C 790.628,471.371 792.961,471.204 795.5,472C 793.19,472.497 790.857,472.663 788.5,472.5 Z" />
  </g>
  <g>
    <path style="opacity:0.006" fill="#804d34" d="M 796.5,472.5 C 796.897,471.475 797.563,471.308 798.5,472C 797.906,472.464 797.239,472.631 796.5,472.5 Z" />
  </g>
  <g>
    <path style="opacity:0.013" fill="#7f4d34" d="M 801.5,472.5 C 804.64,471.359 807.973,471.192 811.5,472C 808.183,472.498 804.85,472.665 801.5,472.5 Z" />
  </g>
  <g>
    <path style="opacity:0.02" fill="#7d4c34" d="M 812.5,472.5 C 813.601,471.402 814.934,471.235 816.5,472C 815.207,472.49 813.873,472.657 812.5,472.5 Z" />
  </g>
  <g>
    <path style="opacity:0.012" fill="#7e5035" d="M 817.5,471.5 C 818.833,472.167 818.833,472.167 817.5,471.5 Z" />
  </g>
  <g>
    <path style="opacity:0.006" fill="#7f4e34" d="M 820.5,472.5 C 822.288,471.378 824.288,471.211 826.5,472C 824.527,472.495 822.527,472.662 820.5,472.5 Z" />
  </g>
  <g>
    <path style="opacity:0.008" fill="#7e4c32" d="M 827.5,472.5 C 828.251,471.427 829.251,471.26 830.5,472C 829.552,472.483 828.552,472.649 827.5,472.5 Z" />
  </g>
  <g>
    <path style="opacity:0.012" fill="#7b4f34" d="M 831.5,472.5 C 831.897,471.475 832.563,471.308 833.5,472C 832.906,472.464 832.239,472.631 831.5,472.5 Z" />
  </g>
  <g>
    <path style="opacity:0.008" fill="#835f44" d="M 369.5,472.5 C 370.833,473.167 370.833,473.167 369.5,472.5 Z" />
  </g>
  <g>
    <path style="opacity:0.986" fill="#27140b" d="M 776.5,473.5 C 796.178,473.167 815.845,473.5 835.5,474.5C 836.828,478.864 836.828,483.197 835.5,487.5C 828.159,487.666 820.826,487.5 813.5,487C 820.492,486.5 827.492,486.334 834.5,486.5C 834.793,482.563 834.46,478.73 833.5,475C 814.329,474.832 795.329,474.332 776.5,473.5 Z" />
  </g>
  <g>
    <path style="opacity:0.004" fill="#774f39" d="M 865.5,474.5 C 866.833,475.167 866.833,475.167 865.5,474.5 Z" />
  </g>
  <g>
    <path style="opacity:0.012" fill="#7f5439" d="M 400.5,475.5 C 401.833,476.167 401.833,476.167 400.5,475.5 Z" />
  </g>
  <g>
    <path style="opacity:0.004" fill="#805035" d="M 528.5,476.5 C 529.833,477.167 529.833,477.167 528.5,476.5 Z" />
  </g>
  <g>
    <path style="opacity:0.764" fill="#210c04" d="M 738.5,467.5 C 738.5,474.167 738.5,480.833 738.5,487.5C 742.833,487.5 747.167,487.5 751.5,487.5C 747.03,488.486 742.363,488.819 737.5,488.5C 737.175,481.313 737.509,474.313 738.5,467.5 Z" />
  </g>
  <g>
    <path style="opacity:0.999" fill="#f3792c" d="M 184.5,482.5 C 184.328,481.508 184.662,480.842 185.5,480.5C 187.188,478.653 188.688,475.986 190,472.5C 192.147,466.388 194.48,460.388 197,454.5C 197.957,456.709 199.124,456.543 200.5,454C 199.167,453 199.167,452 200.5,451C 203.387,450.277 206.053,450.777 208.5,452.5C 207.067,454.809 207.734,456.309 210.5,457C 210.167,458.667 209.833,460.333 209.5,462C 209.833,462.167 210.167,462.333 210.5,462.5C 211.298,460.922 211.798,459.256 212,457.5C 213.368,458.993 213.535,460.493 212.5,462C 214.436,462.813 216.436,463.313 218.5,463.5C 218.413,466.598 218.913,466.932 220,464.5C 220.837,466.351 221.671,468.184 222.5,470C 221.167,471.84 221.334,472.34 223,471.5C 223.279,475.17 223.112,478.837 222.5,482.5C 209.833,482.5 197.167,482.5 184.5,482.5 Z" />
  </g>
  <g>
    <path style="opacity:0.004" fill="#7a4b35" d="M 475.5,477.5 C 476.525,477.897 476.692,478.563 476,479.5C 475.536,478.906 475.369,478.239 475.5,477.5 Z" />
  </g>
  <g>
    <path style="opacity:0.996" fill="#76984e" d="M 172.5,487.5 C 172.392,492.87 172.725,498.203 173.5,503.5C 174.4,507.629 176.567,510.962 180,513.5C 180.333,531.833 180.667,550.167 181,568.5C 182.282,574.113 185.449,578.28 190.5,581C 211.271,582.15 232.105,582.65 253,582.5C 272.833,582.333 292.667,582.167 312.5,582C 313.416,581.722 314.082,581.222 314.5,580.5C 314.833,579.5 315.5,578.833 316.5,578.5C 318.167,577.5 319.5,576.167 320.5,574.5C 321.801,573.118 322.634,571.452 323,569.5C 323.5,550.836 323.667,532.17 323.5,513.5C 331.334,506.679 334.667,498.012 333.5,487.5C 334.319,490.305 334.819,493.305 335,496.5C 335.179,493.447 335.679,490.447 336.5,487.5C 337.086,487.709 337.586,488.043 338,488.5C 338.869,483.492 339.536,483.825 340,489.5C 341,487.833 342,486.167 343,484.5C 343.881,486.274 345.047,486.94 346.5,486.5C 345.271,487.281 343.938,487.781 342.5,488C 343.191,489.067 343.691,490.234 344,491.5C 344.483,490.552 344.649,489.552 344.5,488.5C 346.722,488.822 348.556,488.155 350,486.5C 350.49,487.793 350.657,489.127 350.5,490.5C 352.492,490.672 354.158,490.005 355.5,488.5C 355.442,484.787 355.942,481.12 357,477.5C 358.787,483.361 359.787,489.361 360,495.5C 360.181,503.352 360.348,511.019 360.5,518.5C 358.852,529.61 355.686,540.277 351,550.5C 344.759,563.321 337.759,575.654 330,587.5C 309.152,617.352 287.152,646.352 264,674.5C 259.772,679.087 254.606,680.587 248.5,679C 244.701,676.203 241.201,673.036 238,669.5C 218.921,645.267 200.087,620.933 181.5,596.5C 174.771,586.056 168.271,575.389 162,564.5C 146.48,537.764 141.647,509.431 147.5,479.5C 149.044,477.351 150.211,474.351 151,470.5C 151.305,472.557 151.305,474.557 151,476.5C 154.2,477.734 157.367,479.067 160.5,480.5C 161.246,481.736 161.579,483.07 161.5,484.5C 164.261,485.92 167.261,486.587 170.5,486.5C 170.335,489.85 170.502,493.183 171,496.5C 171.181,493.305 171.681,490.305 172.5,487.5 Z" />
  </g>
  <g>
    <path style="opacity:0.004" fill="#784c34" d="M 466.5,478.5 C 467.833,479.167 467.833,479.167 466.5,478.5 Z" />
  </g>
  <g>
    <path style="opacity:0.004" fill="#7f5237" d="M 400.5,482.5 C 399.475,482.103 399.308,481.437 400,480.5C 400.464,481.094 400.631,481.761 400.5,482.5 Z" />
  </g>
  <g>
    <path style="opacity:0.004" fill="#784b30" d="M 710.5,480.5 C 711.833,481.167 711.833,481.167 710.5,480.5 Z" />
  </g>
  <g>
    <path style="opacity:0.004" fill="#794b32" d="M 475.5,481.5 C 476.833,482.167 476.833,482.167 475.5,481.5 Z" />
  </g>
  <g>
    <path style="opacity:0.999" fill="#feb238" d="M 320.5,479.5 C 321.234,480.708 321.567,482.041 321.5,483.5C 308.833,483.5 296.167,483.5 283.5,483.5C 283.622,479.162 283.955,478.828 284.5,482.5C 296.167,482.5 307.833,482.5 319.5,482.5C 319.263,481.209 319.596,480.209 320.5,479.5 Z" />
  </g>
  <g>
    <path style="opacity:0.004" fill="#866044" d="M 371.5,482.5 C 372.833,483.167 372.833,483.167 371.5,482.5 Z" />
  </g>
  <g>
    <path style="opacity:0.755" fill="#391e13" d="M 549.5,522.5 C 549.5,521.833 549.167,521.5 548.5,521.5C 559.569,520.823 570.735,520.157 582,519.5C 582.667,504.833 582.667,490.167 582,475.5C 565.735,474.84 549.569,474.174 533.5,473.5C 535.126,471.757 537.126,471.257 539.5,472C 538.167,472.333 536.833,472.667 535.5,473C 551.167,473.333 566.833,473.667 582.5,474C 583,474.5 583.5,475 584,475.5C 584.667,490.167 584.667,504.833 584,519.5C 581.227,521.047 578.227,522.047 575,522.5C 566.347,521.609 557.847,521.609 549.5,522.5 Z" />
  </g>
  <g>
    <path style="opacity:0.993" fill="#1a0801" d="M 650.5,483.5 C 649.833,483.5 649.167,483.5 648.5,483.5C 648.369,482.761 648.536,482.094 649,481.5C 656.421,482.316 663.921,482.816 671.5,483C 664.508,483.5 657.508,483.666 650.5,483.5 Z" />
  </g>
  <g>
    <path style="opacity:0.008" fill="#7d5136" d="M 400.5,482.5 C 401.788,484.035 401.788,485.701 400.5,487.5C 400.193,486.113 400.193,484.446 400.5,482.5 Z" />
  </g>
  <g>
    <path style="opacity:0.004" fill="#794930" d="M 475.5,483.5 C 476.598,484.601 476.765,485.934 476,487.5C 475.51,486.207 475.343,484.873 475.5,483.5 Z" />
  </g>
  <g>
    <path style="opacity:0.004" fill="#7a4c31" d="M 529.5,482.5 C 530.525,482.897 530.692,483.563 530,484.5C 529.536,483.906 529.369,483.239 529.5,482.5 Z" />
  </g>
  <g>
    <path style="opacity:0.039" fill="#79472e" d="M 704.5,483.5 C 701.763,484.051 699.096,485.051 696.5,486.5C 695.522,486.023 694.689,485.357 694,484.5C 692.54,486.422 690.873,487.089 689,486.5C 688.667,485.833 688.333,485.167 688,484.5C 687.51,485.793 687.343,487.127 687.5,488.5C 686.549,487.081 686.216,485.415 686.5,483.5C 692.5,483.5 698.5,483.5 704.5,483.5 Z" />
  </g>
  <g>
    <path style="opacity:0.012" fill="#73462d" d="M 705.5,484.5 C 706.833,485.167 706.833,485.167 705.5,484.5 Z" />
  </g>
  <g>
    <path style="opacity:0.004" fill="#7a4930" d="M 647.5,484.5 C 648.289,484.783 648.956,485.283 649.5,486C 648.184,486.528 647.517,486.028 647.5,484.5 Z" />
  </g>
  <g>
    <path style="opacity:0.004" fill="#76472d" d="M 699.5,485.5 C 700.833,486.167 700.833,486.167 699.5,485.5 Z" />
  </g>
  <g>
    <path style="opacity:0.004" fill="#75462c" d="M 701.5,485.5 C 702.833,486.167 702.833,486.167 701.5,485.5 Z" />
  </g>
  <g>
    <path style="opacity:0.004" fill="#7c4c30" d="M 739.5,485.5 C 740.833,486.167 740.833,486.167 739.5,485.5 Z" />
  </g>
  <g>
    <path style="opacity:0.004" fill="#8c6447" d="M 371.5,486.5 C 372.833,487.167 372.833,487.167 371.5,486.5 Z" />
  </g>
  <g>
    <path style="opacity:0.986" fill="#2c130a" d="M 532.5,475.5 C 533.482,478.962 533.815,482.629 533.5,486.5C 545.345,486.172 557.012,486.505 568.5,487.5C 556.833,487.5 545.167,487.5 533.5,487.5C 532.883,487.389 532.383,487.056 532,486.5C 531.19,482.642 531.357,478.976 532.5,475.5 Z" />
  </g>
  <g>
    <path style="opacity:0.004" fill="#76472f" d="M 703.5,485.5 C 704.525,485.897 704.692,486.563 704,487.5C 703.536,486.906 703.369,486.239 703.5,485.5 Z" />
  </g>
  <g>
    <path style="opacity:0.004" fill="#7a472b" d="M 446.5,489.5 C 447.833,490.167 447.833,490.167 446.5,489.5 Z" />
  </g>
  <g>
    <path style="opacity:0.004" fill="#7c4b32" d="M 566.5,489.5 C 567.833,490.167 567.833,490.167 566.5,489.5 Z" />
  </g>
  <g>
    <path style="opacity:0.008" fill="#78482b" d="M 794.5,489.5 C 795.833,490.167 795.833,490.167 794.5,489.5 Z" />
  </g>
  <g>
    <path style="opacity:0.004" fill="#7b4a30" d="M 423.5,489.5 C 424.525,489.897 424.692,490.563 424,491.5C 423.536,490.906 423.369,490.239 423.5,489.5 Z" />
  </g>
  <g>
    <path style="opacity:0.98" fill="#351910" d="M 796.5,503.5 C 796.5,498.5 796.5,493.5 796.5,488.5C 789.313,488.825 782.313,488.491 775.5,487.5C 782.655,486.345 789.988,486.178 797.5,487C 798.897,493.503 798.73,500.003 797,506.5C 796.517,505.552 796.351,504.552 796.5,503.5 Z" />
  </g>
  <g>
    <path style="opacity:0.004" fill="#75482c" d="M 446.5,491.5 C 447.833,492.167 447.833,492.167 446.5,491.5 Z" />
  </g>
  <g>
    <path style="opacity:0.004" fill="#7a4a2f" d="M 720.5,491.5 C 721.833,492.167 721.833,492.167 720.5,491.5 Z" />
  </g>
  <g>
    <path style="opacity:0.004" fill="#7a482a" d="M 794.5,492.5 C 795.833,493.167 795.833,493.167 794.5,492.5 Z" />
  </g>
  <g>
    <path style="opacity:0.998" fill="#592e1b" d="M 259.5,388.5 C 275.661,390.124 291.328,394.124 306.5,400.5C 307.833,400.833 309.167,401.167 310.5,401.5C 311.659,403.25 313.326,404.25 315.5,404.5C 315.842,405.338 316.508,405.672 317.5,405.5C 322.127,408.791 326.46,412.458 330.5,416.5C 331.445,417.993 332.445,419.493 333.5,421C 332.965,422.537 332.632,424.037 332.5,425.5C 333.751,426.631 334.751,427.964 335.5,429.5C 335.333,430.167 335.167,430.833 335,431.5C 329.175,425.494 322.675,420.494 315.5,416.5C 289.859,401.072 262.192,395.572 232.5,400C 187.814,409.191 159.481,435.691 147.5,479.5C 141.647,509.431 146.48,537.764 162,564.5C 168.271,575.389 174.771,586.056 181.5,596.5C 179.35,594.24 177.183,591.907 175,589.5C 174,589.833 173,590.167 172,590.5C 171.632,589.09 170.799,588.09 169.5,587.5C 169.027,589.247 168.693,590.914 168.5,592.5C 167.5,591.833 166.5,591.167 165.5,590.5C 165.34,588.847 164.674,587.514 163.5,586.5C 163.5,585.833 163.167,585.5 162.5,585.5C 160.023,581.222 157.523,576.888 155,572.5C 154.667,573.167 154.333,573.833 154,574.5C 153.293,572.919 152.46,571.419 151.5,570C 152.167,569.667 152.833,569.333 153.5,569C 151.266,564.69 148.932,560.524 146.5,556.5C 146.672,555.508 146.338,554.842 145.5,554.5C 137.135,533.976 133.635,512.642 135,490.5C 137.085,473.747 142.251,458.08 150.5,443.5C 153.399,440.048 156.066,436.382 158.5,432.5C 165.201,424.798 172.534,417.798 180.5,411.5C 181.872,410.488 183.205,409.488 184.5,408.5C 187.511,407.331 190.178,405.664 192.5,403.5C 194.819,403.008 196.819,402.008 198.5,400.5C 202.127,399.679 205.46,398.346 208.5,396.5C 215.666,393.889 223,391.889 230.5,390.5C 232.099,390.768 233.432,390.434 234.5,389.5C 242.812,388.76 251.146,388.427 259.5,388.5 Z" />
  </g>
  <g>
    <path style="opacity:0.996" fill="#fdab38" d="M 323.5,496.5 C 310.67,494.179 297.67,493.846 284.5,495.5C 290.798,494.17 297.465,493.503 304.5,493.5C 311.167,493.833 317.833,494.167 324.5,494.5C 324.137,495.183 323.804,495.85 323.5,496.5 Z" />
  </g>
  <g>
    <path style="opacity:0.008" fill="#79492f" d="M 423.5,492.5 C 424.573,493.251 424.74,494.251 424,495.5C 423.517,494.552 423.351,493.552 423.5,492.5 Z" />
  </g>
  <g>
    <path style="opacity:0.004" fill="#784931" d="M 475.5,492.5 C 476.573,493.251 476.74,494.251 476,495.5C 475.517,494.552 475.351,493.552 475.5,492.5 Z" />
  </g>
  <g>
    <path style="opacity:0.004" fill="#74442d" d="M 794.5,494.5 C 795.833,495.167 795.833,495.167 794.5,494.5 Z" />
  </g>
  <g>
    <path style="opacity:0.997" fill="#f7b22f" d="M 232.5,494.5 C 245.5,494.5 258.5,494.5 271.5,494.5C 269.801,502.035 265.134,506.869 257.5,509C 257.728,509.399 258.062,509.565 258.5,509.5C 245.488,512.321 236.822,507.321 232.5,494.5 Z" />
  </g>
  <g>
    <path style="opacity:0.998" fill="#f47e2d" d="M 323.5,496.5 C 320.502,505.926 314.002,510.592 304,510.5C 294.187,509.859 287.687,504.859 284.5,495.5C 297.67,493.846 310.67,494.179 323.5,496.5 Z" />
  </g>
  <g>
    <path style="opacity:0.998" fill="#f0742c" d="M 181.5,493.5 C 195.171,493.333 208.837,493.5 222.5,494C 216.316,510.068 205.316,514.401 189.5,507C 185.154,503.473 182.488,498.973 181.5,493.5 Z" />
  </g>
  <g>
    <path style="opacity:0.004" fill="#77452d" d="M 693.5,498.5 C 692.833,497.167 692.833,497.167 693.5,498.5 Z" />
  </g>
  <g>
    <path style="opacity:0.004" fill="#7b492f" d="M 814.5,496.5 C 815.573,497.251 815.74,498.251 815,499.5C 814.517,498.552 814.351,497.552 814.5,496.5 Z" />
  </g>
  <g>
    <path style="opacity:0.006" fill="#78482e" d="M 475.5,497.5 C 476.573,498.251 476.74,499.251 476,500.5C 475.517,499.552 475.351,498.552 475.5,497.5 Z" />
  </g>
  <g>
    <path style="opacity:0.008" fill="#74452d" d="M 693.5,498.5 C 694.833,499.167 694.833,499.167 693.5,498.5 Z" />
  </g>
  <g>
    <path style="opacity:0.997" fill="#62341f" d="M 776.5,473.5 C 795.329,474.332 814.329,474.832 833.5,475C 834.46,478.73 834.793,482.563 834.5,486.5C 827.492,486.334 820.492,486.5 813.5,487C 820.826,487.5 828.159,487.666 835.5,487.5C 829.021,488.491 822.354,488.824 815.5,488.5C 815.318,493.794 814.818,493.794 814,488.5C 813.503,490.81 813.337,493.143 813.5,495.5C 812.686,493.369 812.186,491.036 812,488.5C 810.278,511.715 818.778,530.048 837.5,543.5C 836.07,546.433 834.07,548.933 831.5,551C 826.146,550.371 821.646,547.871 818,543.5C 814.613,538.36 811.113,534.027 807.5,530.5C 806.442,529.4 805.608,528.066 805,526.5C 804.392,528.066 803.558,529.4 802.5,530.5C 798.046,537.229 792.38,543.729 785.5,550C 783.083,551.626 780.583,553.126 778,554.5C 775.476,551.958 773.309,549.124 771.5,546C 777.933,540.9 783.767,535.067 789,528.5C 791.629,523.579 793.962,518.579 796,513.5C 796.789,511.288 796.622,509.288 795.5,507.5C 795.232,505.901 795.566,504.568 796.5,503.5C 796.351,504.552 796.517,505.552 797,506.5C 798.73,500.003 798.897,493.503 797.5,487C 789.988,486.178 782.655,486.345 775.5,487.5C 773.859,485.797 772.859,483.63 772.5,481C 773.027,477.995 774.36,475.495 776.5,473.5 Z" />
  </g>
  <g>
    <path style="opacity:1" fill="#f9e039" d="M 232.5,494.5 C 245.99,493.504 259.656,493.171 273.5,493.5C 271.938,502.061 266.938,507.395 258.5,509.5C 258.062,509.565 257.728,509.399 257.5,509C 265.134,506.869 269.801,502.035 271.5,494.5C 258.5,494.5 245.5,494.5 232.5,494.5 Z" />
  </g>
  <g>
    <path style="opacity:1" fill="#3b1d12" d="M 670.5,487.5 C 671.124,487.917 671.457,488.584 671.5,489.5C 668.088,501.347 660.755,509.681 649.5,514.5C 648.893,514.376 648.56,514.043 648.5,513.5C 652.736,511.555 656.403,508.888 659.5,505.5C 665.19,500.796 668.857,494.796 670.5,487.5 Z" />
  </g>
  <g>
    <path style="opacity:0.004" fill="#7a472e" d="M 720.5,499.5 C 721.833,500.167 721.833,500.167 720.5,499.5 Z" />
  </g>
  <g>
    <path style="opacity:0.006" fill="#774730" d="M 475.5,501.5 C 476.525,501.897 476.692,502.563 476,503.5C 475.536,502.906 475.369,502.239 475.5,501.5 Z" />
  </g>
  <g>
    <path style="opacity:0.004" fill="#75432b" d="M 756.5,502.5 C 757.833,503.167 757.833,503.167 756.5,502.5 Z" />
  </g>
  <g>
    <path style="opacity:0.008" fill="#75462d" d="M 444.5,503.5 C 445.833,504.167 445.833,504.167 444.5,503.5 Z" />
  </g>
  <g>
    <path style="opacity:0.027" fill="#7c4a31" d="M 602.5,489.5 C 602.5,501.167 602.5,512.833 602.5,524.5C 601.82,516.432 601.153,508.265 600.5,500C 601.135,496.397 601.802,492.897 602.5,489.5 Z" />
  </g>
  <g>
    <path style="opacity:0.004" fill="#77472b" d="M 659.5,505.5 C 658.833,504.167 658.833,504.167 659.5,505.5 Z" />
  </g>
  <g>
    <path style="opacity:0.967" fill="#1f0b04" d="M 722.5,466.5 C 723.332,485.662 723.832,504.996 724,524.5C 727.745,525.297 731.579,525.797 735.5,526C 731.848,526.499 728.182,526.665 724.5,526.5C 722.989,525.042 721.989,523.209 721.5,521C 722.492,502.91 722.826,484.743 722.5,466.5 Z" />
  </g>
  <g>
    <path style="opacity:0.008" fill="#74492d" d="M 533.5,505.5 C 534.833,506.167 534.833,506.167 533.5,505.5 Z" />
  </g>
  <g>
    <path style="opacity:0.006" fill="#794c2f" d="M 541.5,506.5 C 541.897,505.475 542.563,505.308 543.5,506C 542.906,506.464 542.239,506.631 541.5,506.5 Z" />
  </g>
  <g>
    <path style="opacity:0.004" fill="#7a4b2f" d="M 549.5,505.5 C 550.833,506.167 550.833,506.167 549.5,505.5 Z" />
  </g>
  <g>
    <path style="opacity:0.004" fill="#7a4c2e" d="M 558.5,505.5 C 559.833,506.167 559.833,506.167 558.5,505.5 Z" />
  </g>
  <g>
    <path style="opacity:0.004" fill="#7a4c31" d="M 560.5,505.5 C 561.833,506.167 561.833,506.167 560.5,505.5 Z" />
  </g>
  <g>
    <path style="opacity:0.004" fill="#78492c" d="M 699.5,505.5 C 700.833,506.167 700.833,506.167 699.5,505.5 Z" />
  </g>
  <g>
    <path style="opacity:0.004" fill="#78492e" d="M 475.5,507.5 C 476.833,508.167 476.833,508.167 475.5,507.5 Z" />
  </g>
  <g>
    <path style="opacity:0.008" fill="#7c4f38" d="M 886.5,507.5 C 887.833,508.167 887.833,508.167 886.5,507.5 Z" />
  </g>
  <g>
    <path style="opacity:0.318" fill="#482618" d="M 478.5,466.5 C 479.833,504.5 479.833,542.5 478.5,580.5C 477.171,542.402 477.171,504.402 478.5,466.5 Z" />
  </g>
  <g>
    <path style="opacity:0.992" fill="#3b1e12" d="M 533.5,487.5 C 545.167,487.5 556.833,487.5 568.5,487.5C 569.492,494.648 569.825,501.981 569.5,509.5C 557.253,509.178 545.086,509.512 533,510.5C 532.333,525.167 532.333,539.833 533,554.5C 548.931,555.16 564.765,555.826 580.5,556.5C 578.297,556.935 576.297,556.935 574.5,556.5C 561.5,556.5 548.5,556.5 535.5,556.5C 533.61,556.703 532.11,556.037 531,554.5C 530.333,539.833 530.333,525.167 531,510.5C 531.374,509.584 531.874,508.75 532.5,508C 544.167,507.667 555.833,507.333 567.5,507C 568.371,501.197 568.704,495.03 568.5,488.5C 556.655,488.828 544.988,488.495 533.5,487.5 Z" />
  </g>
  <g>
    <path style="opacity:0.004" fill="#7a492f" d="M 720.5,508.5 C 721.833,509.167 721.833,509.167 720.5,508.5 Z" />
  </g>
  <g>
    <path style="opacity:0.007" fill="#77472e" d="M 475.5,509.5 C 476.573,510.251 476.74,511.251 476,512.5C 475.517,511.552 475.351,510.552 475.5,509.5 Z" />
  </g>
  <g>
    <path style="opacity:0.996" fill="#f6e5c9" d="M 279.5,508.5 C 281.5,509.833 283.167,511.5 284.5,513.5C 284.062,513.435 283.728,513.601 283.5,514C 292.109,520.735 301.776,522.902 312.5,520.5C 312.667,536.17 312.5,551.837 312,567.5C 311.167,568.333 310.333,569.167 309.5,570C 297.838,570.5 286.171,570.667 274.5,570.5C 274.812,559.115 274.478,547.782 273.5,536.5C 271.972,535.139 270.305,533.972 268.5,533C 257.5,532.333 246.5,532.333 235.5,533C 232.619,534.251 230.786,536.417 230,539.5C 229.5,549.828 229.334,560.161 229.5,570.5C 218.495,570.667 207.495,570.5 196.5,570C 195.667,569.167 194.833,568.333 194,567.5C 193.5,551.837 193.333,536.17 193.5,520.5C 197.796,521.463 202.129,521.629 206.5,521C 203.635,520.817 200.969,520.317 198.5,519.5C 201.5,519.5 204.5,519.5 207.5,519.5C 215.11,519.11 221.61,515.777 227,509.5C 240.121,522.833 254.955,525 271.5,516C 274.666,514 277.332,511.5 279.5,508.5 Z" />
  </g>
  <g>
    <path style="opacity:0.008" fill="#75482e" d="M 528.5,510.5 C 529.833,511.167 529.833,511.167 528.5,510.5 Z" />
  </g>
  <g>
    <path style="opacity:0.004" fill="#815b40" d="M 372.5,512.5 C 373.833,513.167 373.833,513.167 372.5,512.5 Z" />
  </g>
  <g>
    <path style="opacity:0.004" fill="#7b492e" d="M 720.5,512.5 C 721.833,513.167 721.833,513.167 720.5,512.5 Z" />
  </g>
  <g>
    <path style="opacity:0.008" fill="#7b5138" d="M 885.5,513.5 C 886.833,514.167 886.833,514.167 885.5,513.5 Z" />
  </g>
  <g>
    <path style="opacity:0.006" fill="#7f4a34" d="M 528.5,514.5 C 529.525,514.897 529.692,515.563 529,516.5C 528.536,515.906 528.369,515.239 528.5,514.5 Z" />
  </g>
  <g>
    <path style="opacity:0.008" fill="#7c4730" d="M 791.5,514.5 C 792.833,515.167 792.833,515.167 791.5,514.5 Z" />
  </g>
  <g>
    <path style="opacity:0.992" fill="#f6f1e8" d="M 279.5,508.5 C 277.332,511.5 274.666,514 271.5,516C 254.955,525 240.121,522.833 227,509.5C 221.61,515.777 215.11,519.11 207.5,519.5C 215.759,517.731 222.259,513.398 227,506.5C 240.509,522.377 256.009,524.544 273.5,513C 275.333,511.167 277.167,509.333 279,507.5C 279.399,507.728 279.565,508.062 279.5,508.5 Z" />
  </g>
  <g>
    <path style="opacity:0.008" fill="#76462e" d="M 475.5,515.5 C 476.833,516.167 476.833,516.167 475.5,515.5 Z" />
  </g>
  <g>
    <path style="opacity:0.004" fill="#784d35" d="M 884.5,517.5 C 885.833,518.167 885.833,518.167 884.5,517.5 Z" />
  </g>
  <g>
    <path style="opacity:0.004" fill="#76482f" d="M 475.5,517.5 C 476.525,517.897 476.692,518.563 476,519.5C 475.536,518.906 475.369,518.239 475.5,517.5 Z" />
  </g>
  <g>
    <path style="opacity:0.004" fill="#79482c" d="M 669.5,518.5 C 670.833,519.167 670.833,519.167 669.5,518.5 Z" />
  </g>
  <g>
    <path style="opacity:0.008" fill="#7b4a30" d="M 417.5,519.5 C 418.833,520.167 418.833,520.167 417.5,519.5 Z" />
  </g>
  <g>
    <path style="opacity:0.004" fill="#77472c" d="M 790.5,520.5 C 789.833,519.167 789.833,519.167 790.5,520.5 Z" />
  </g>
  <g>
    <path style="opacity:0.004" fill="#805a40" d="M 372.5,520.5 C 373.833,521.167 373.833,521.167 372.5,520.5 Z" />
  </g>
  <g>
    <path style="opacity:0.004" fill="#75472d" d="M 449.5,520.5 C 450.833,521.167 450.833,521.167 449.5,520.5 Z" />
  </g>
  <g>
    <path style="opacity:0.004" fill="#7c4c33" d="M 528.5,519.5 C 529.525,519.897 529.692,520.563 529,521.5C 528.536,520.906 528.369,520.239 528.5,519.5 Z" />
  </g>
  <g>
    <path style="opacity:0.878" fill="#341b12" d="M 704.5,483.5 C 698.5,483.5 692.5,483.5 686.5,483.5C 686.216,485.415 686.549,487.081 687.5,488.5C 688.132,492.431 689.799,495.765 692.5,498.5C 694.094,501.764 696.427,504.431 699.5,506.5C 703.651,509.803 707.985,512.97 712.5,516C 709.978,520.034 706.978,523.701 703.5,527C 701.837,527.265 700.337,526.765 699,525.5C 698.617,526.056 698.117,526.389 697.5,526.5C 695.213,523.384 692.38,520.717 689,518.5C 685.339,515.444 682.006,511.444 679,506.5C 676.288,510.612 673.122,514.278 669.5,517.5C 671.699,513.033 674.866,508.699 679,504.5C 684.795,513.796 692.628,520.796 702.5,525.5C 705.513,522.651 708.18,519.485 710.5,516C 702.848,512.355 696.348,507.189 691,500.5C 687.255,495.096 685.421,489.096 685.5,482.5C 692.175,482.666 698.842,482.5 705.5,482C 706.127,480.262 706.46,478.429 706.5,476.5C 706.387,474.359 705.72,472.525 704.5,471C 685.589,470.536 666.923,470.369 648.5,470.5C 656.371,469.805 664.371,469.138 672.5,468.5C 683.828,469.504 695.495,469.838 707.5,469.5C 708.44,473.463 708.607,477.463 708,481.5C 707.29,482.973 706.124,483.64 704.5,483.5 Z" />
  </g>
  <g>
    <path style="opacity:0.008" fill="#774730" d="M 672.5,516.5 C 673.833,517.167 673.833,517.167 672.5,516.5 Z" />
  </g>
  <g>
    <path style="opacity:0.004" fill="#75492d" d="M 789.5,520.5 C 788.833,521.167 788.833,521.167 789.5,520.5 Z" />
  </g>
  <g>
    <path style="opacity:0.004" fill="#805b40" d="M 372.5,521.5 C 371.833,522.167 371.833,522.167 372.5,521.5 Z" />
  </g>
  <g>
    <path style="opacity:0.004" fill="#7b4c2f" d="M 416.5,521.5 C 417.833,522.167 417.833,522.167 416.5,521.5 Z" />
  </g>
  <g>
    <path style="opacity:0.996" fill="#62341f" d="M 533.5,473.5 C 549.569,474.174 565.735,474.84 582,475.5C 582.667,490.167 582.667,504.833 582,519.5C 570.735,520.157 559.569,520.823 548.5,521.5C 547.509,528.313 547.175,535.313 547.5,542.5C 546.671,535.679 546.171,528.679 546,521.5C 545.5,528.826 545.334,536.159 545.5,543.5C 556.838,543.667 568.172,543.5 579.5,543C 583.736,542.665 587.736,541.832 591.5,540.5C 593.412,544.194 593.912,548.194 593,552.5C 592.302,553.691 591.469,554.691 590.5,555.5C 587.14,555.616 583.807,555.949 580.5,556.5C 564.765,555.826 548.931,555.16 533,554.5C 532.333,539.833 532.333,525.167 533,510.5C 545.086,509.512 557.253,509.178 569.5,509.5C 569.825,501.981 569.492,494.648 568.5,487.5C 557.012,486.505 545.345,486.172 533.5,486.5C 533.815,482.629 533.482,478.962 532.5,475.5C 532.328,474.508 532.662,473.842 533.5,473.5 Z" />
  </g>
  <g>
    <path style="opacity:0.996" fill="#61341f" d="M 883.5,505.5 C 876.825,505.334 870.158,505.5 863.5,506C 869.825,506.5 876.158,506.666 882.5,506.5C 882.789,510.106 882.456,513.606 881.5,517C 875.252,517.188 869.085,517.688 863,518.5C 862.667,538.833 862.333,559.167 862,579.5C 858.397,580.135 854.897,580.802 851.5,581.5C 850.504,581.586 849.671,581.252 849,580.5C 848.598,579.128 848.098,577.795 847.5,576.5C 847.624,575.893 847.957,575.56 848.5,575.5C 849.176,539.667 849.842,503.167 850.5,466C 850.272,465.601 849.938,465.435 849.5,465.5C 850.997,464.694 852.664,464.028 854.5,463.5C 857.702,464.127 860.869,464.794 864,465.5C 864.333,478.167 864.667,490.833 865,503.5C 870.237,504.368 875.571,504.368 881,503.5C 882.399,504.227 883.899,504.727 885.5,505C 884.906,505.464 884.239,505.631 883.5,505.5 Z" />
  </g>
  <g>
    <path style="opacity:1" fill="#220d05" d="M 511.5,518.5 C 505.5,518.5 499.5,518.5 493.5,518.5C 493.5,539.167 493.5,559.833 493.5,580.5C 492.503,559.673 492.169,538.673 492.5,517.5C 499.022,517.177 505.355,517.51 511.5,518.5 Z" />
  </g>
  <g>
    <path style="opacity:0.004" fill="#79482d" d="M 581.5,522.5 C 582.833,523.167 582.833,523.167 581.5,522.5 Z" />
  </g>
  <g>
    <path style="opacity:0.008" fill="#75472f" d="M 739.5,522.5 C 740.833,523.167 740.833,523.167 739.5,522.5 Z" />
  </g>
  <g>
    <path style="opacity:0.004" fill="#78442c" d="M 821.5,522.5 C 822.833,523.167 822.833,523.167 821.5,522.5 Z" />
  </g>
  <g>
    <path style="opacity:0.004" fill="#76492f" d="M 475.5,523.5 C 476.833,524.167 476.833,524.167 475.5,523.5 Z" />
  </g>
  <g>
    <path style="opacity:0.016" fill="#78462c" d="M 549.5,522.5 C 549.649,523.552 549.483,524.552 549,525.5C 548.26,524.251 548.427,523.251 549.5,522.5 Z" />
  </g>
  <g>
    <path style="opacity:0.004" fill="#7c4b30" d="M 550.5,523.5 C 551.833,524.167 551.833,524.167 550.5,523.5 Z" />
  </g>
  <g>
    <path style="opacity:0.004" fill="#7d4c32" d="M 528.5,522.5 C 529.613,523.946 529.78,525.613 529,527.5C 528.506,525.866 528.34,524.199 528.5,522.5 Z" />
  </g>
  <g>
    <path style="opacity:0.01" fill="#774830" d="M 475.5,525.5 C 476.525,525.897 476.692,526.563 476,527.5C 475.536,526.906 475.369,526.239 475.5,525.5 Z" />
  </g>
  <g>
    <path style="opacity:0.008" fill="#784a2d" d="M 648.5,526.5 C 647.833,525.167 647.833,525.167 648.5,526.5 Z" />
  </g>
  <g>
    <path style="opacity:0.004" fill="#79492f" d="M 660.5,525.5 C 661.833,526.167 661.833,526.167 660.5,525.5 Z" />
  </g>
  <g>
    <path style="opacity:0.996" fill="#361d12" d="M 423.5,511.5 C 424.043,511.56 424.376,511.893 424.5,512.5C 420.453,525.045 413.12,535.212 402.5,543C 401.552,543.483 400.552,543.649 399.5,543.5C 410.893,535.383 418.893,524.717 423.5,511.5 Z" />
  </g>
  <g>
    <path style="opacity:0.008" fill="#74482e" d="M 648.5,526.5 C 648.833,526.5 649.167,526.5 649.5,526.5C 649.315,527.17 648.981,527.17 648.5,526.5 Z" />
  </g>
  <g>
    <path style="opacity:0.004" fill="#76492e" d="M 697.5,526.5 C 696.833,527.167 696.833,527.167 697.5,526.5 Z" />
  </g>
  <g>
    <path style="opacity:0.004" fill="#76462d" d="M 548.5,527.5 C 549.833,528.167 549.833,528.167 548.5,527.5 Z" />
  </g>
  <g>
    <path style="opacity:0.004" fill="#794b2e" d="M 784.5,527.5 C 785.833,528.167 785.833,528.167 784.5,527.5 Z" />
  </g>
  <g>
    <path style="opacity:0.004" fill="#876044" d="M 135.5,527.5 C 136.525,527.897 136.692,528.563 136,529.5C 135.536,528.906 135.369,528.239 135.5,527.5 Z" />
  </g>
  <g>
    <path style="opacity:0.966" fill="#160601" d="M 849.5,465.5 C 849.938,465.435 850.272,465.601 850.5,466C 849.842,503.167 849.176,539.667 848.5,575.5C 848.168,538.663 848.502,501.996 849.5,465.5 Z" />
  </g>
  <g>
    <path style="opacity:0.998" fill="#4d0303" d="M 323.5,513.5 C 323.667,532.17 323.5,550.836 323,569.5C 322.634,571.452 321.801,573.118 320.5,574.5C 319.957,574.44 319.624,574.107 319.5,573.5C 320.609,571.615 321.443,569.615 322,567.5C 322.161,548.759 322.661,530.759 323.5,513.5 Z" />
  </g>
  <g>
    <path style="opacity:0.004" fill="#774a2f" d="M 619.5,529.5 C 620.833,530.167 620.833,530.167 619.5,529.5 Z" />
  </g>
  <g>
    <path style="opacity:0.006" fill="#7a472f" d="M 677.5,530.5 C 677.897,529.475 678.563,529.308 679.5,530C 678.906,530.464 678.239,530.631 677.5,530.5 Z" />
  </g>
  <g>
    <path style="opacity:0.004" fill="#79472c" d="M 784.5,530.5 C 783.833,529.167 783.833,529.167 784.5,530.5 Z" />
  </g>
  <g>
    <path style="opacity:0.008" fill="#78472d" d="M 548.5,530.5 C 549.833,531.167 549.833,531.167 548.5,530.5 Z" />
  </g>
  <g>
    <path style="opacity:0.008" fill="#794a2f" d="M 673.5,530.5 C 674.833,531.167 674.833,531.167 673.5,530.5 Z" />
  </g>
  <g>
    <path style="opacity:0.004" fill="#886045" d="M 136.5,531.5 C 137.833,532.167 137.833,532.167 136.5,531.5 Z" />
  </g>
  <g>
    <path style="opacity:0.008" fill="#7f4f32" d="M 528.5,531.5 C 529.833,532.167 529.833,532.167 528.5,531.5 Z" />
  </g>
  <g>
    <path style="opacity:0.997" fill="#62341f" d="M 604.5,581.5 C 603.167,581.5 602.5,580.833 602.5,579.5C 603.498,547.671 603.832,515.671 603.5,483.5C 603.171,477.794 603.505,472.128 604.5,466.5C 608.38,466.251 612.38,466.251 616.5,466.5C 616.667,504.168 616.5,541.835 616,579.5C 612.065,580.138 608.231,580.804 604.5,581.5 Z" />
  </g>
  <g>
    <path style="opacity:0.012" fill="#73442f" d="M 727.5,532.5 C 726.833,531.167 726.833,531.167 727.5,532.5 Z" />
  </g>
  <g>
    <path style="opacity:0.008" fill="#7a482e" d="M 803.5,531.5 C 804.833,532.167 804.833,532.167 803.5,531.5 Z" />
  </g>
  <g>
    <path style="opacity:0.995" fill="#fbf7ea" d="M 284.5,513.5 C 293.698,519.403 303.698,521.07 314.5,518.5C 314.971,535.262 314.471,551.928 313,568.5C 312.167,569.333 311.333,570.167 310.5,571C 298.171,571.5 285.838,571.667 273.5,571.5C 273.828,560.321 273.495,549.321 272.5,538.5C 272.167,537.5 271.5,536.833 270.5,536.5C 270.389,535.883 270.056,535.383 269.5,535C 257.992,534.174 246.659,534.341 235.5,535.5C 233.589,535.574 232.422,536.574 232,538.5C 231.5,549.495 231.333,560.495 231.5,571.5C 220.167,571.5 208.833,571.5 197.5,571.5C 195.246,570.585 193.246,569.252 191.5,567.5C 191.5,551.167 191.5,534.833 191.5,518.5C 193.806,518.993 196.139,519.326 198.5,519.5C 200.969,520.317 203.635,520.817 206.5,521C 202.129,521.629 197.796,521.463 193.5,520.5C 193.333,536.17 193.5,551.837 194,567.5C 194.833,568.333 195.667,569.167 196.5,570C 207.495,570.5 218.495,570.667 229.5,570.5C 229.334,560.161 229.5,549.828 230,539.5C 230.786,536.417 232.619,534.251 235.5,533C 246.5,532.333 257.5,532.333 268.5,533C 270.305,533.972 271.972,535.139 273.5,536.5C 274.478,547.782 274.812,559.115 274.5,570.5C 286.171,570.667 297.838,570.5 309.5,570C 310.333,569.167 311.167,568.333 312,567.5C 312.5,551.837 312.667,536.17 312.5,520.5C 301.776,522.902 292.109,520.735 283.5,514C 283.728,513.601 284.062,513.435 284.5,513.5 Z" />
  </g>
  <g>
    <path style="opacity:0.004" fill="#805940" d="M 368.5,532.5 C 369.833,533.167 369.833,533.167 368.5,532.5 Z" />
  </g>
  <g>
    <path style="opacity:0.898" fill="#341b11" d="M 813.5,495.5 C 813.165,512.486 819.499,526.152 832.5,536.5C 835.001,538.502 837.335,540.669 839.5,543C 836.652,547.177 833.818,551.344 831,555.5C 822.42,550.423 815.254,543.756 809.5,535.5C 808.559,533.95 807.893,532.284 807.5,530.5C 811.113,534.027 814.613,538.36 818,543.5C 821.646,547.871 826.146,550.371 831.5,551C 834.07,548.933 836.07,546.433 837.5,543.5C 818.778,530.048 810.278,511.715 812,488.5C 812.186,491.036 812.686,493.369 813.5,495.5 Z" />
  </g>
  <g>
    <path style="opacity:0.996" fill="#61341f" d="M 437.5,532.5 C 435.837,530.507 434.67,528.174 434,525.5C 433.51,526.793 433.343,528.127 433.5,529.5C 432.662,529.842 432.328,530.508 432.5,531.5C 431.094,531.973 430.427,532.973 430.5,534.5C 429.662,534.842 429.328,535.508 429.5,536.5C 426.502,539.667 423.669,543 421,546.5C 417.308,549.365 413.808,552.365 410.5,555.5C 409.305,555.678 408.138,556.011 407,556.5C 405.019,555.35 403.186,554.016 401.5,552.5C 400.189,549.865 398.522,547.531 396.5,545.5C 396.973,544.094 397.973,543.427 399.5,543.5C 400.552,543.649 401.552,543.483 402.5,543C 413.12,535.212 420.453,525.045 424.5,512.5C 424.376,511.893 424.043,511.56 423.5,511.5C 423.216,509.585 423.549,507.919 424.5,506.5C 424.682,511.794 425.182,511.794 426,506.5C 426.5,499.842 426.666,493.175 426.5,486.5C 419.167,486.5 411.833,486.5 404.5,486.5C 404.5,482.5 404.5,478.5 404.5,474.5C 424.167,474.5 443.833,474.5 463.5,474.5C 463.5,478.5 463.5,482.5 463.5,486.5C 456.492,486.334 449.492,486.5 442.5,487C 438.67,511.203 447.004,529.87 467.5,543C 465.539,545.963 463.206,548.629 460.5,551C 459.5,551.667 458.5,551.667 457.5,551C 453.385,548.552 449.552,545.719 446,542.5C 443.333,538.5 440.667,534.5 438,530.5C 437.536,531.094 437.369,531.761 437.5,532.5 Z" />
  </g>
  <g>
    <path style="opacity:0.004" fill="#78472f" d="M 432.5,531.5 C 433.525,531.897 433.692,532.563 433,533.5C 432.536,532.906 432.369,532.239 432.5,531.5 Z" />
  </g>
  <g>
    <path style="opacity:0.02" fill="#75472d" d="M 433.5,529.5 C 434.833,530.167 434.833,530.167 433.5,529.5 Z" />
  </g>
  <g>
    <path style="opacity:0.008" fill="#794830" d="M 678.5,533.5 C 679.833,534.167 679.833,534.167 678.5,533.5 Z" />
  </g>
  <g>
    <path style="opacity:0.004" fill="#754c32" d="M 780.5,534.5 C 779.833,533.167 779.833,533.167 780.5,534.5 Z" />
  </g>
  <g>
    <path style="opacity:0.998" fill="#190100" d="M 235.5,535.5 C 246.659,534.341 257.992,534.174 269.5,535C 270.056,535.383 270.389,535.883 270.5,536.5C 258.884,535.542 247.217,535.209 235.5,535.5 Z" />
  </g>
  <g>
    <path style="opacity:0.02" fill="#7a492f" d="M 430.5,534.5 C 431.833,535.167 431.833,535.167 430.5,534.5 Z" />
  </g>
  <g>
    <path style="opacity:0.008" fill="#794931" d="M 475.5,531.5 C 476.598,532.601 476.765,533.934 476,535.5C 475.51,534.207 475.343,532.873 475.5,531.5 Z" />
  </g>
  <g>
    <path style="opacity:0.012" fill="#7a472f" d="M 548.5,534.5 C 549.573,535.251 549.74,536.251 549,537.5C 548.517,536.552 548.351,535.552 548.5,534.5 Z" />
  </g>
  <g>
    <path style="opacity:0.006" fill="#865f44" d="M 135.5,536.5 C 136.251,535.427 137.251,535.26 138.5,536C 137.552,536.483 136.552,536.649 135.5,536.5 Z" />
  </g>
  <g>
    <path style="opacity:0.014" fill="#79482f" d="M 461.5,536.5 C 461.897,535.475 462.563,535.308 463.5,536C 462.906,536.464 462.239,536.631 461.5,536.5 Z" />
  </g>
  <g>
    <path style="opacity:0.004" fill="#78482d" d="M 832.5,535.5 C 833.833,536.167 833.833,536.167 832.5,535.5 Z" />
  </g>
  <g>
    <path style="opacity:0.012" fill="#764a2f" d="M 429.5,536.5 C 430.833,537.167 430.833,537.167 429.5,536.5 Z" />
  </g>
  <g>
    <path style="opacity:0.008" fill="#76452c" d="M 809.5,535.5 C 809.631,536.239 809.464,536.906 809,537.5C 808.308,536.563 808.475,535.897 809.5,535.5 Z" />
  </g>
  <g>
    <path style="opacity:0.004" fill="#7c4a2e" d="M 550.5,537.5 C 551.833,538.167 551.833,538.167 550.5,537.5 Z" />
  </g>
  <g>
    <path style="opacity:0.004" fill="#784a31" d="M 659.5,537.5 C 660.833,538.167 660.833,538.167 659.5,537.5 Z" />
  </g>
  <g>
    <path style="opacity:0.008" fill="#855f45" d="M 135.5,538.5 C 136.833,539.167 136.833,539.167 135.5,538.5 Z" />
  </g>
  <g>
    <path style="opacity:0.01" fill="#866042" d="M 138.5,538.5 C 139.525,538.897 139.692,539.563 139,540.5C 138.536,539.906 138.369,539.239 138.5,538.5 Z" />
  </g>
  <g>
    <path style="opacity:0.006" fill="#814e34" d="M 528.5,538.5 C 529.525,538.897 529.692,539.563 529,540.5C 528.536,539.906 528.369,539.239 528.5,538.5 Z" />
  </g>
  <g>
    <path style="opacity:0.004" fill="#79492d" d="M 548.5,538.5 C 549.833,539.167 549.833,539.167 548.5,538.5 Z" />
  </g>
  <g>
    <path style="opacity:0.004" fill="#774930" d="M 585.5,538.5 C 586.833,539.167 586.833,539.167 585.5,538.5 Z" />
  </g>
  <g>
    <path style="opacity:0.004" fill="#794a2f" d="M 659.5,539.5 C 660.833,540.167 660.833,540.167 659.5,539.5 Z" />
  </g>
  <g>
    <path style="opacity:0.004" fill="#774830" d="M 808.5,539.5 C 809.833,540.167 809.833,540.167 808.5,539.5 Z" />
  </g>
  <g>
    <path style="opacity:0.004" fill="#875f44" d="M 135.5,541.5 C 135.897,540.475 136.563,540.308 137.5,541C 136.906,541.464 136.239,541.631 135.5,541.5 Z" />
  </g>
  <g>
    <path style="opacity:0.004" fill="#784b31" d="M 430.5,540.5 C 431.833,541.167 431.833,541.167 430.5,540.5 Z" />
  </g>
  <g>
    <path style="opacity:0.008" fill="#7b4a32" d="M 441.5,541.5 C 440.833,540.167 440.833,540.167 441.5,541.5 Z" />
  </g>
  <g>
    <path style="opacity:0.957" fill="#371d12" d="M 795.5,507.5 C 796.622,509.288 796.789,511.288 796,513.5C 793.962,518.579 791.629,523.579 789,528.5C 783.767,535.067 777.933,540.9 771.5,546C 773.309,549.124 775.476,551.958 778,554.5C 780.583,553.126 783.083,551.626 785.5,550C 792.38,543.729 798.046,537.229 802.5,530.5C 797.294,541.875 789.127,550.542 778,556.5C 774.581,553.588 771.748,550.254 769.5,546.5C 769.351,545.448 769.517,544.448 770,543.5C 774.037,541.074 777.537,538.074 780.5,534.5C 782.167,533.5 783.5,532.167 784.5,530.5C 787.502,527.839 789.502,524.505 790.5,520.5C 793.129,516.624 794.796,512.29 795.5,507.5 Z" />
  </g>
  <g>
    <path style="opacity:0.004" fill="#7a4d33" d="M 441.5,541.5 C 442.833,542.167 442.833,542.167 441.5,541.5 Z" />
  </g>
  <g>
    <path style="opacity:0.012" fill="#895f44" d="M 138.5,543.5 C 138.897,542.475 139.563,542.308 140.5,543C 139.906,543.464 139.239,543.631 138.5,543.5 Z" />
  </g>
  <g>
    <path style="opacity:0.975" fill="#351b12" d="M 547.5,542.5 C 561.382,542.222 575.382,541.222 589.5,539.5C 590.416,539.543 591.083,539.876 591.5,540.5C 587.736,541.832 583.736,542.665 579.5,543C 568.172,543.5 556.838,543.667 545.5,543.5C 545.334,536.159 545.5,528.826 546,521.5C 546.171,528.679 546.671,535.679 547.5,542.5 Z" />
  </g>
  <g>
    <path style="opacity:0.004" fill="#78492f" d="M 574.5,539.5 C 575.833,540.167 575.833,540.167 574.5,539.5 Z" />
  </g>
  <g>
    <path style="opacity:0.004" fill="#76492f" d="M 571.5,539.5 C 572.833,540.167 572.833,540.167 571.5,539.5 Z" />
  </g>
  <g>
    <path style="opacity:0.004" fill="#815a3e" d="M 365.5,543.5 C 366.833,544.167 366.833,544.167 365.5,543.5 Z" />
  </g>
  <g>
    <path style="opacity:0.006" fill="#7e4d33" d="M 528.5,543.5 C 529.525,543.897 529.692,544.563 529,545.5C 528.536,544.906 528.369,544.239 528.5,543.5 Z" />
  </g>
  <g>
    <path style="opacity:0.004" fill="#7a4930" d="M 659.5,543.5 C 660.833,544.167 660.833,544.167 659.5,543.5 Z" />
  </g>
  <g>
    <path style="opacity:0.98" fill="#381d13" d="M 678.5,534.5 C 678.187,537.247 678.52,539.914 679.5,542.5C 680.293,542.931 681.127,543.265 682,543.5C 692.755,543.322 703.922,543.322 715.5,543.5C 707.528,544.662 694.861,544.829 677.5,544C 676.549,540.943 676.216,537.777 676.5,534.5C 672.167,534.5 667.833,534.5 663.5,534.5C 663.5,549.833 663.5,565.167 663.5,580.5C 662.883,580.389 662.383,580.056 662,579.5C 661.333,564.833 661.333,550.167 662,535.5C 663.924,533.244 666.424,532.244 669.5,532.5C 672.639,532.702 675.639,533.369 678.5,534.5 Z" />
  </g>
  <g>
    <path style="opacity:0.004" fill="#866146" d="M 140.5,544.5 C 141.833,545.167 141.833,545.167 140.5,544.5 Z" />
  </g>
  <g>
    <path style="opacity:0.004" fill="#7d563c" d="M 396.5,545.5 C 396.103,546.525 395.437,546.692 394.5,546C 395.094,545.536 395.761,545.369 396.5,545.5 Z" />
  </g>
  <g>
    <path style="opacity:1" fill="#341a10" d="M 449.5,521.5 C 451.986,527.659 455.986,532.659 461.5,536.5C 464.099,538.479 466.765,540.479 469.5,542.5C 467.42,544.993 465.586,547.659 464,550.5C 460.804,554.187 457.304,554.353 453.5,551C 446.521,546.192 441.187,540.025 437.5,532.5C 437.369,531.761 437.536,531.094 438,530.5C 440.667,534.5 443.333,538.5 446,542.5C 449.552,545.719 453.385,548.552 457.5,551C 458.5,551.667 459.5,551.667 460.5,551C 463.206,548.629 465.539,545.963 467.5,543C 447.004,529.87 438.67,511.203 442.5,487C 449.492,486.5 456.492,486.334 463.5,486.5C 463.5,482.5 463.5,478.5 463.5,474.5C 443.833,474.5 424.167,474.5 404.5,474.5C 404.5,478.5 404.5,482.5 404.5,486.5C 411.833,486.5 419.167,486.5 426.5,486.5C 426.666,493.175 426.5,499.842 426,506.5C 425.182,511.794 424.682,511.794 424.5,506.5C 425.074,500.516 425.407,494.516 425.5,488.5C 418.159,488.666 410.826,488.5 403.5,488C 402.167,483.333 402.167,478.667 403.5,474C 424.073,473.174 444.573,473.341 465,474.5C 465.828,478.871 465.661,483.205 464.5,487.5C 457.216,488.3 449.883,488.8 442.5,489C 442.116,494.875 442.616,501.042 444,507.5C 444.631,512.742 446.465,517.409 449.5,521.5 Z" />
  </g>
  <g>
    <path style="opacity:0.004" fill="#774b30" d="M 659.5,545.5 C 660.833,546.167 660.833,546.167 659.5,545.5 Z" />
  </g>
  <g>
    <path style="opacity:0.004" fill="#774b32" d="M 768.5,546.5 C 767.833,545.167 767.833,545.167 768.5,546.5 Z" />
  </g>
  <g>
    <path style="opacity:0.996" fill="#61341f" d="M 722.5,534.5 C 722.337,536.857 722.503,539.19 723,541.5C 723.495,539.527 723.662,537.527 723.5,535.5C 727.833,535.5 732.167,535.5 736.5,535.5C 736.824,550.412 736.491,565.245 735.5,580C 711.502,580.5 687.502,580.667 663.5,580.5C 663.5,565.167 663.5,549.833 663.5,534.5C 667.833,534.5 672.167,534.5 676.5,534.5C 676.216,537.777 676.549,540.943 677.5,544C 694.861,544.829 707.528,544.662 715.5,543.5C 717.265,542.539 719.265,542.205 721.5,542.5C 721.726,539.751 721.393,537.084 720.5,534.5C 720.97,533.537 721.637,533.537 722.5,534.5 Z M 687.5,557.5 C 689.675,557.682 691.675,558.349 693.5,559.5C 702.529,558.529 711.695,558.529 721,559.5C 721.333,558.833 721.667,558.167 722,557.5C 722.667,560.5 722.667,563.5 722,566.5C 707.579,567.49 693.079,567.824 678.5,567.5C 678.5,564.833 678.5,562.167 678.5,559.5C 680.71,558.417 682.877,558.417 685,559.5C 686.376,559.316 687.209,558.649 687.5,557.5 Z" />
  </g>
  <g>
    <path style="opacity:0.009" fill="#7b482e" d="M 719.5,537.5 C 720.573,538.251 720.74,539.251 720,540.5C 719.517,539.552 719.351,538.552 719.5,537.5 Z" />
  </g>
  <g>
    <path style="opacity:0.008" fill="#7c4e34" d="M 768.5,546.5 C 768.833,546.5 769.167,546.5 769.5,546.5C 769.315,547.17 768.981,547.17 768.5,546.5 Z" />
  </g>
  <g>
    <path style="opacity:0.004" fill="#7f4f33" d="M 528.5,547.5 C 529.833,548.167 529.833,548.167 528.5,547.5 Z" />
  </g>
  <g>
    <path style="opacity:0.008" fill="#794931" d="M 659.5,547.5 C 660.598,548.601 660.765,549.934 660,551.5C 659.51,550.207 659.343,548.873 659.5,547.5 Z" />
  </g>
  <g>
    <path style="opacity:0.008" fill="#825f3e" d="M 363.5,549.5 C 364.833,550.167 364.833,550.167 363.5,549.5 Z" />
  </g>
  <g>
    <path style="opacity:0.008" fill="#855c40" d="M 144.5,554.5 C 143.475,554.103 143.308,553.437 144,552.5C 144.464,553.094 144.631,553.761 144.5,554.5 Z" />
  </g>
  <g>
    <path style="opacity:0.997" fill="#130201" d="M 235.5,535.5 C 234.496,536.683 233.662,538.016 233,539.5C 232.83,550.341 232.33,561.008 231.5,571.5C 231.333,560.495 231.5,549.495 232,538.5C 232.422,536.574 233.589,535.574 235.5,535.5 Z" />
  </g>
  <g>
    <path style="opacity:0.999" fill="#200100" d="M 270.5,536.5 C 271.5,536.833 272.167,537.5 272.5,538.5C 272.667,549.505 272.5,560.505 272,571.5C 271.792,559.788 271.292,548.121 270.5,536.5 Z" />
  </g>
  <g>
    <path style="opacity:0.008" fill="#80563a" d="M 401.5,552.5 C 400.833,553.167 400.833,553.167 401.5,552.5 Z" />
  </g>
  <g>
    <path style="opacity:0.996" fill="#ca4e26" d="M 241.5,543.5 C 248.833,543.5 256.167,543.5 263.5,543.5C 263.5,552.833 263.5,562.167 263.5,571.5C 256.167,571.5 248.833,571.5 241.5,571.5C 241.5,562.167 241.5,552.833 241.5,543.5 Z" />
  </g>
  <g>
    <path style="opacity:0.004" fill="#7e4f36" d="M 455.5,553.5 C 456.833,554.167 456.833,554.167 455.5,553.5 Z" />
  </g>
  <g>
    <path style="opacity:0.008" fill="#885d41" d="M 144.5,554.5 C 144.833,554.5 145.167,554.5 145.5,554.5C 145.5,555.167 145.5,555.833 145.5,556.5C 144.662,556.158 144.328,555.492 144.5,554.5 Z" />
  </g>
  <g>
    <path style="opacity:0.004" fill="#7e5537" d="M 410.5,555.5 C 411.833,556.167 411.833,556.167 410.5,555.5 Z" />
  </g>
  <g>
    <path style="opacity:0.996" fill="#61341f" d="M 511.5,518.5 C 505.355,517.51 499.022,517.177 492.5,517.5C 492.169,538.673 492.503,559.673 493.5,580.5C 491.538,582.017 489.205,582.684 486.5,582.5C 483.514,582.618 480.848,581.952 478.5,580.5C 479.833,542.5 479.833,504.5 478.5,466.5C 478.5,465.833 478.5,465.167 478.5,464.5C 483.958,463.971 489.125,463.638 494,463.5C 494.5,464 495,464.5 495.5,465C 494.511,478.087 494.177,491.254 494.5,504.5C 500.687,503.989 507.021,503.989 513.5,504.5C 514.269,508.511 514.602,512.345 514.5,516C 513.627,517.045 512.627,517.878 511.5,518.5 Z" />
  </g>
  <g>
    <path style="opacity:0.004" fill="#784a31" d="M 590.5,555.5 C 591.833,556.167 591.833,556.167 590.5,555.5 Z" />
  </g>
  <g>
    <path style="opacity:0.986" fill="#3a1d12" d="M 604.5,582.5 C 604.5,582.167 604.5,581.833 604.5,581.5C 608.231,580.804 612.065,580.138 616,579.5C 616.5,541.835 616.667,504.168 616.5,466.5C 612.38,466.251 608.38,466.251 604.5,466.5C 603.505,472.128 603.171,477.794 603.5,483.5C 603.167,483.5 602.833,483.5 602.5,483.5C 600.416,477.123 600.75,470.79 603.5,464.5C 608.055,463.652 612.888,463.986 618,465.5C 618.667,503.833 618.667,542.167 618,580.5C 613.706,582.248 609.206,582.915 604.5,582.5 Z" />
  </g>
  <g>
    <path style="opacity:0.02" fill="#875e41" d="M 145.5,556.5 C 145.833,556.5 146.167,556.5 146.5,556.5C 146.315,557.17 145.981,557.17 145.5,556.5 Z" />
  </g>
  <g>
    <path style="opacity:0.049" fill="#855236" d="M 535.5,556.5 C 548.5,556.5 561.5,556.5 574.5,556.5C 568.681,557.328 562.681,557.828 556.5,558C 557.696,558.654 557.696,559.154 556.5,559.5C 549.524,557.905 542.524,556.905 535.5,556.5 Z" />
  </g>
  <g>
    <path style="opacity:0.004" fill="#7a4c32" d="M 585.5,556.5 C 586.833,557.167 586.833,557.167 585.5,556.5 Z" />
  </g>
  <g>
    <path style="opacity:0.004" fill="#795038" d="M 775.5,556.5 C 776.833,557.167 776.833,557.167 775.5,556.5 Z" />
  </g>
  <g>
    <path style="opacity:0.004" fill="#7f573c" d="M 403.5,557.5 C 404.833,558.167 404.833,558.167 403.5,557.5 Z" />
  </g>
  <g>
    <path style="opacity:0.006" fill="#7b4e35" d="M 475.5,557.5 C 476.525,557.897 476.692,558.563 476,559.5C 475.536,558.906 475.369,558.239 475.5,557.5 Z" />
  </g>
  <g>
    <path style="opacity:0.008" fill="#7c4c32" d="M 578.5,558.5 C 579.251,557.427 580.251,557.26 581.5,558C 580.648,559.728 579.648,559.895 578.5,558.5 Z" />
  </g>
  <g>
    <path style="opacity:0.004" fill="#784d32" d="M 659.5,557.5 C 660.833,558.167 660.833,558.167 659.5,557.5 Z" />
  </g>
  <g>
    <path style="opacity:0.004" fill="#7b5136" d="M 782.5,558.5 C 781.833,557.167 781.833,557.167 782.5,558.5 Z" />
  </g>
  <g>
    <path style="opacity:0.012" fill="#845a3e" d="M 358.5,558.5 C 359.833,559.167 359.833,559.167 358.5,558.5 Z" />
  </g>
  <g>
    <path style="opacity:0.004" fill="#7c4d34" d="M 540.5,558.5 C 541.833,559.167 541.833,559.167 540.5,558.5 Z" />
  </g>
  <g>
    <path style="opacity:0.004" fill="#7d5035" d="M 543.5,558.5 C 544.833,559.167 544.833,559.167 543.5,558.5 Z" />
  </g>
  <g>
    <path style="opacity:0.004" fill="#7f4e35" d="M 547.5,558.5 C 548.833,559.167 548.833,559.167 547.5,558.5 Z" />
  </g>
  <g>
    <path style="opacity:0.004" fill="#7e5135" d="M 551.5,558.5 C 552.833,559.167 552.833,559.167 551.5,558.5 Z" />
  </g>
  <g>
    <path style="opacity:0.004" fill="#7c4f34" d="M 558.5,558.5 C 559.833,559.167 559.833,559.167 558.5,558.5 Z" />
  </g>
  <g>
    <path style="opacity:0.004" fill="#7c4e33" d="M 576.5,558.5 C 577.833,559.167 577.833,559.167 576.5,558.5 Z" />
  </g>
  <g>
    <path style="opacity:0.004" fill="#7a5037" d="M 782.5,558.5 C 783.833,559.167 783.833,559.167 782.5,558.5 Z" />
  </g>
  <g>
    <path style="opacity:0.988" fill="#301c14" d="M 602.5,483.5 C 602.833,483.5 603.167,483.5 603.5,483.5C 603.832,515.671 603.498,547.671 602.5,579.5C 601.63,560.747 601.63,542.413 602.5,524.5C 602.5,512.833 602.5,501.167 602.5,489.5C 601.167,487.5 601.167,485.5 602.5,483.5 Z" />
  </g>
  <g>
    <path style="opacity:0.981" fill="#30180e" d="M 727.5,532.5 C 731.004,533.13 734.504,533.797 738,534.5C 738.667,549.833 738.667,565.167 738,580.5C 736.989,581.337 735.822,581.67 734.5,581.5C 711.5,581.5 688.5,581.5 665.5,581.5C 664.508,581.672 663.842,581.338 663.5,580.5C 687.502,580.667 711.502,580.5 735.5,580C 736.491,565.245 736.824,550.412 736.5,535.5C 732.167,535.5 727.833,535.5 723.5,535.5C 723.662,537.527 723.495,539.527 723,541.5C 722.503,539.19 722.337,536.857 722.5,534.5C 724.306,533.976 725.972,533.309 727.5,532.5 Z" />
  </g>
  <g>
    <path style="opacity:0.01" fill="#825c41" d="M 357.5,560.5 C 358.525,560.897 358.692,561.563 358,562.5C 357.536,561.906 357.369,561.239 357.5,560.5 Z" />
  </g>
  <g>
    <path style="opacity:0.996" fill="#292219" d="M 263.5,543.5 C 256.167,543.5 248.833,543.5 241.5,543.5C 240.506,552.986 240.173,562.652 240.5,572.5C 239.506,562.681 239.173,552.681 239.5,542.5C 247.684,542.174 255.684,542.508 263.5,543.5 Z" />
  </g>
  <g>
    <path style="opacity:0.314" fill="#663b25" d="M 511.5,518.5 C 505.986,519.167 500.319,519.833 494.5,520.5C 494.632,521.963 494.965,523.463 495.5,525C 494.852,543.64 494.185,562.14 493.5,580.5C 493.5,559.833 493.5,539.167 493.5,518.5C 499.5,518.5 505.5,518.5 511.5,518.5 Z" />
  </g>
  <g>
    <path style="opacity:0.004" fill="#7c4e33" d="M 659.5,563.5 C 660.833,564.167 660.833,564.167 659.5,563.5 Z" />
  </g>
  <g>
    <path style="opacity:0.004" fill="#7e4f37" d="M 475.5,565.5 C 476.833,566.167 476.833,566.167 475.5,565.5 Z" />
  </g>
  <g>
    <path style="opacity:0.004" fill="#7c4d33" d="M 659.5,566.5 C 660.833,567.167 660.833,567.167 659.5,566.5 Z" />
  </g>
  <g>
    <path style="opacity:0.004" fill="#794c31" d="M 659.5,568.5 C 660.833,569.167 660.833,569.167 659.5,568.5 Z" />
  </g>
  <g>
    <path style="opacity:0.584" fill="#3b1e13" d="M 883.5,505.5 C 884.043,508.218 884.709,510.885 885.5,513.5C 884.069,514.78 883.402,516.447 883.5,518.5C 877.313,519.011 870.979,519.011 864.5,518.5C 864.667,539.169 864.5,559.836 864,580.5C 859.879,582.664 855.712,582.997 851.5,581.5C 854.897,580.802 858.397,580.135 862,579.5C 862.333,559.167 862.667,538.833 863,518.5C 869.085,517.688 875.252,517.188 881.5,517C 882.456,513.606 882.789,510.106 882.5,506.5C 876.158,506.666 869.825,506.5 863.5,506C 870.158,505.5 876.825,505.334 883.5,505.5 Z" />
  </g>
  <g>
    <path style="opacity:0.994" fill="#8c3e20" d="M 241.5,543.5 C 241.5,552.833 241.5,562.167 241.5,571.5C 248.833,571.5 256.167,571.5 263.5,571.5C 256.018,572.492 248.352,572.825 240.5,572.5C 240.173,562.652 240.506,552.986 241.5,543.5 Z" />
  </g>
  <g>
    <path style="opacity:0.008" fill="#7c4f32" d="M 659.5,571.5 C 660.833,572.167 660.833,572.167 659.5,571.5 Z" />
  </g>
  <g>
    <path style="opacity:0.994" fill="#230301" d="M 191.5,567.5 C 193.246,569.252 195.246,570.585 197.5,571.5C 208.659,572.331 219.993,572.831 231.5,573C 219.833,573.667 208.167,573.667 196.5,573C 193.921,571.924 192.254,570.091 191.5,567.5 Z" />
  </g>
  <g>
    <path style="opacity:0.008" fill="#875a3e" d="M 350.5,574.5 C 351.833,575.167 351.833,575.167 350.5,574.5 Z" />
  </g>
  <g>
    <path style="opacity:0.004" fill="#7c5238" d="M 475.5,574.5 C 476.833,575.167 476.833,575.167 475.5,574.5 Z" />
  </g>
  <g>
    <path style="opacity:0.004" fill="#7b4d34" d="M 659.5,574.5 C 660.833,575.167 660.833,575.167 659.5,574.5 Z" />
  </g>
  <g>
    <path style="opacity:0.004" fill="#845c3d" d="M 349.5,575.5 C 349.833,575.5 350.167,575.5 350.5,575.5C 350.315,576.17 349.981,576.17 349.5,575.5 Z" />
  </g>
  <g>
    <path style="opacity:0.004" fill="#7b5139" d="M 619.5,576.5 C 620.833,577.167 620.833,577.167 619.5,576.5 Z" />
  </g>
  <g>
    <path style="opacity:0.004" fill="#7a513b" d="M 739.5,576.5 C 740.833,577.167 740.833,577.167 739.5,576.5 Z" />
  </g>
  <g>
    <path style="opacity:0.004" fill="#7c533a" d="M 475.5,577.5 C 476.525,577.897 476.692,578.563 476,579.5C 475.536,578.906 475.369,578.239 475.5,577.5 Z" />
  </g>
  <g>
    <path style="opacity:0.008" fill="#7c5037" d="M 599.5,578.5 C 600.833,579.167 600.833,579.167 599.5,578.5 Z" />
  </g>
  <g>
    <path style="opacity:0.998" fill="#5a2013" d="M 316.5,578.5 C 315.5,578.833 314.833,579.5 314.5,580.5C 274.529,581.649 234.529,581.816 194.5,581C 187.903,578.737 183.736,574.237 182,567.5C 181.667,549.167 181.333,530.833 181,512.5C 177.844,510.177 175.677,507.177 174.5,503.5C 174.81,502.262 175.31,502.262 176,503.5C 177.569,507.072 179.902,510.072 183,512.5C 183.333,531.167 183.667,549.833 184,568.5C 185.406,573.573 188.572,577.073 193.5,579C 233.5,579.667 273.5,579.667 313.5,579C 314.503,577.454 315.503,577.287 316.5,578.5 Z" />
  </g>
  <g>
    <path style="opacity:0.999" fill="#87cf69" d="M 173.5,503.5 C 173.833,503.5 174.167,503.5 174.5,503.5C 175.677,507.177 177.844,510.177 181,512.5C 181.333,530.833 181.667,549.167 182,567.5C 183.736,574.237 187.903,578.737 194.5,581C 234.529,581.816 274.529,581.649 314.5,580.5C 314.082,581.222 313.416,581.722 312.5,582C 292.667,582.167 272.833,582.333 253,582.5C 232.105,582.65 211.271,582.15 190.5,581C 185.449,578.28 182.282,574.113 181,568.5C 180.667,550.167 180.333,531.833 180,513.5C 176.567,510.962 174.4,507.629 173.5,503.5 Z" />
  </g>
  <g>
    <path style="opacity:0.041" fill="#825136" d="M 665.5,581.5 C 688.5,581.5 711.5,581.5 734.5,581.5C 729.298,582.21 723.965,582.876 718.5,583.5C 707.833,583.5 697.167,583.5 686.5,583.5C 679.37,582.866 672.37,582.199 665.5,581.5 Z" />
  </g>
  <g>
    <path style="opacity:0.004" fill="#7d553d" d="M 477.5,582.5 C 478.833,583.167 478.833,583.167 477.5,582.5 Z" />
  </g>
  <g>
    <path style="opacity:0.004" fill="#7e553b" d="M 604.5,582.5 C 603.833,583.167 603.833,583.167 604.5,582.5 Z" />
  </g>
  <g>
    <path style="opacity:0.004" fill="#79523b" d="M 735.5,583.5 C 736.251,582.427 737.251,582.26 738.5,583C 737.552,583.483 736.552,583.649 735.5,583.5 Z" />
  </g>
  <g>
    <path style="opacity:0.004" fill="#7a543c" d="M 848.5,582.5 C 849.833,583.167 849.833,583.167 848.5,582.5 Z" />
  </g>
  <g>
    <path style="opacity:0.008" fill="#805b3c" d="M 161.5,585.5 C 160.833,584.167 160.833,584.167 161.5,585.5 Z" />
  </g>
  <g>
    <path style="opacity:0.014" fill="#845c3f" d="M 161.5,585.5 C 161.833,585.5 162.167,585.5 162.5,585.5C 163.167,585.5 163.5,585.833 163.5,586.5C 163.672,587.492 163.338,588.158 162.5,588.5C 161.89,587.609 161.557,586.609 161.5,585.5 Z" />
  </g>
  <g>
    <path style="opacity:0.004" fill="#815a3f" d="M 162.5,588.5 C 161.833,589.167 161.833,589.167 162.5,588.5 Z" />
  </g>
  <g>
    <path style="opacity:0.004" fill="#825d40" d="M 164.5,590.5 C 163.833,589.167 163.833,589.167 164.5,590.5 Z" />
  </g>
  <g>
    <path style="opacity:0.004" fill="#825d40" d="M 164.5,590.5 C 164.833,590.5 165.167,590.5 165.5,590.5C 165.315,591.17 164.981,591.17 164.5,590.5 Z" />
  </g>
  <g>
    <path style="opacity:0.012" fill="#895e3d" d="M 168.5,594.5 C 167.833,595.167 167.833,595.167 168.5,594.5 Z" />
  </g>
  <g>
    <path style="opacity:0.008" fill="#855e40" d="M 337.5,594.5 C 338.833,595.167 338.833,595.167 337.5,594.5 Z" />
  </g>
  <g>
    <path style="opacity:0.012" fill="#885c3c" d="M 169.5,596.5 C 168.833,597.167 168.833,597.167 169.5,596.5 Z" />
  </g>
  <g>
    <path style="opacity:0.004" fill="#875f3f" d="M 169.5,598.5 C 170.833,599.167 170.833,599.167 169.5,598.5 Z" />
  </g>
  <g>
    <path style="opacity:0.008" fill="#845d40" d="M 179.5,610.5 C 178.833,611.167 178.167,611.833 177.5,612.5C 176.957,612.44 176.624,612.107 176.5,611.5C 177.325,610.614 178.325,610.281 179.5,610.5 Z" />
  </g>
  <g>
    <path style="opacity:0.008" fill="#835d41" d="M 326.5,610.5 C 327.833,611.167 327.833,611.167 326.5,610.5 Z" />
  </g>
  <g>
    <path style="opacity:0.004" fill="#825d3f" d="M 177.5,612.5 C 178.833,613.167 178.833,613.167 177.5,612.5 Z" />
  </g>
  <g>
    <path style="opacity:0.004" fill="#805c3f" d="M 180.5,613.5 C 181.833,614.167 181.833,614.167 180.5,613.5 Z" />
  </g>
  <g>
    <path style="opacity:0.004" fill="#875d3e" d="M 184.5,617.5 C 184.5,618.167 184.833,618.5 185.5,618.5C 185.253,620.975 184.587,620.975 183.5,618.5C 183.624,617.893 183.957,617.56 184.5,617.5 Z" />
  </g>
  <g>
    <path style="opacity:0.004" fill="#865d3c" d="M 187.5,621.5 C 186.833,622.167 186.833,622.167 187.5,621.5 Z" />
  </g>
  <g>
    <path style="opacity:0.004" fill="#845d41" d="M 315.5,625.5 C 316.833,626.167 316.833,626.167 315.5,625.5 Z" />
  </g>
  <g>
    <path style="opacity:0.004" fill="#88603f" d="M 193.5,629.5 C 192.833,630.167 192.833,630.167 193.5,629.5 Z" />
  </g>
  <g>
    <path style="opacity:0.012" fill="#8a6140" d="M 309.5,632.5 C 310.833,633.167 310.833,633.167 309.5,632.5 Z" />
  </g>
  <g>
    <path style="opacity:0.004" fill="#845f3f" d="M 308.5,634.5 C 309.833,635.167 309.833,635.167 308.5,634.5 Z" />
  </g>
  <g>
    <path style="opacity:0.006" fill="#855d40" d="M 199.5,639.5 C 201.76,640.238 201.927,641.238 200,642.5C 199.517,641.552 199.351,640.552 199.5,639.5 Z" />
  </g>
  <g>
    <path style="opacity:0.008" fill="#855d41" d="M 203.5,642.5 C 202.833,643.167 202.833,643.167 203.5,642.5 Z" />
  </g>
  <g>
    <path style="opacity:0.008" fill="#865e41" d="M 200.5,643.5 C 201.525,643.897 201.692,644.563 201,645.5C 200.536,644.906 200.369,644.239 200.5,643.5 Z" />
  </g>
  <g>
    <path style="opacity:0.016" fill="#825e40" d="M 206.5,646.5 C 205.833,647.167 205.833,647.167 206.5,646.5 Z" />
  </g>
  <g>
    <path style="opacity:0.004" fill="#865d3f" d="M 209.5,650.5 C 208.833,651.167 208.833,651.167 209.5,650.5 Z" />
  </g>
  <g>
    <path style="opacity:0.004" fill="#895e3d" d="M 217.5,660.5 C 216.833,661.167 216.833,661.167 217.5,660.5 Z" />
  </g>
  <g>
    <path style="opacity:0.995" fill="#582d1b" d="M 315.5,416.5 C 322.675,420.494 329.175,425.494 335,431.5C 335.167,430.833 335.333,430.167 335.5,429.5C 334.751,427.964 333.751,426.631 332.5,425.5C 332.632,424.037 332.965,422.537 333.5,421C 332.445,419.493 331.445,417.993 330.5,416.5C 345.694,428.241 357.028,442.907 364.5,460.5C 367.329,469.486 369.662,478.486 371.5,487.5C 373.542,512.236 369.209,535.903 358.5,558.5C 357.662,558.842 357.328,559.508 357.5,560.5C 354.582,565.333 351.916,570.333 349.5,575.5C 345.253,581.656 341.253,587.99 337.5,594.5C 333.342,599.477 329.676,604.811 326.5,610.5C 320.361,617.433 314.694,624.767 309.5,632.5C 308.662,632.842 308.328,633.508 308.5,634.5C 300.816,643.522 293.483,652.855 286.5,662.5C 281.197,668.644 276.031,674.978 271,681.5C 260.685,692.192 249.518,693.192 237.5,684.5C 233.845,679.514 229.845,674.847 225.5,670.5C 223.183,666.854 220.516,663.52 217.5,660.5C 215.559,657.155 212.893,653.822 209.5,650.5C 209.262,648.596 208.262,647.262 206.5,646.5C 206.262,644.596 205.262,643.262 203.5,642.5C 200.397,637.948 197.064,633.614 193.5,629.5C 191.878,626.545 189.878,623.878 187.5,621.5C 187.068,620.29 186.401,619.29 185.5,618.5C 184.833,618.5 184.5,618.167 184.5,617.5C 183.567,614.63 181.9,612.296 179.5,610.5C 176.547,605.55 173.214,600.883 169.5,596.5C 169.672,595.508 169.338,594.842 168.5,594.5C 168.5,593.833 168.5,593.167 168.5,592.5C 168.693,590.914 169.027,589.247 169.5,587.5C 170.799,588.09 171.632,589.09 172,590.5C 173,590.167 174,589.833 175,589.5C 177.183,591.907 179.35,594.24 181.5,596.5C 200.087,620.933 218.921,645.267 238,669.5C 241.201,673.036 244.701,676.203 248.5,679C 254.606,680.587 259.772,679.087 264,674.5C 287.152,646.352 309.152,617.352 330,587.5C 337.759,575.654 344.759,563.321 351,550.5C 355.686,540.277 358.852,529.61 360.5,518.5C 365.214,475.593 350.214,441.593 315.5,416.5 Z" />
  </g>
  <g>
    <path style="opacity:0.02" fill="#83593f" d="M 286.5,662.5 C 287.833,663.167 287.833,663.167 286.5,662.5 Z" />
  </g>
  <g>
    <path style="opacity:0.012" fill="#876143" d="M 225.5,670.5 C 224.833,671.167 224.833,671.167 225.5,670.5 Z" />
  </g>
  <g>
    <path style="opacity:0.008" fill="#835d41" d="M 227.5,674.5 C 228.833,675.167 228.833,675.167 227.5,674.5 Z" />
  </g>
  <g>
    <path style="opacity:0.008" fill="#885f41" d="M 232.5,680.5 C 233.833,681.167 233.833,681.167 232.5,680.5 Z" />
  </g>
  <g>
    <path style="opacity:0.008" fill="#866043" d="M 233.5,682.5 C 234.525,682.897 234.692,683.563 234,684.5C 233.536,683.906 233.369,683.239 233.5,682.5 Z" />
  </g>
  <g>
    <path style="opacity:0.004" fill="#866343" d="M 237.5,684.5 C 236.833,685.167 236.833,685.167 237.5,684.5 Z" />
  </g>
  <g>
    <path style="opacity:0.004" fill="#886348" d="M 247.5,690.5 C 248.833,691.167 248.833,691.167 247.5,690.5 Z" />
  </g>
  <g>
    <path style="opacity:0.004" fill="#6c6d6a" d="M 307.5,933.5 C 308.833,934.167 308.833,934.167 307.5,933.5 Z" />
  </g>
</svg>